<svg viewBox="0 0 24 24" fill="none" xmlns="http://www.w3.org/2000/svg">
<path d="M12 5.25C11.4808 5.25 10.9733 5.09605 10.5416 4.80761C10.11 4.51917 9.7735 4.1092 9.57482 3.62955C9.37614 3.14989 9.32415 2.62209 9.42544 2.11289C9.52673 1.60369 9.77673 1.13596 10.1438 0.768846C10.511 0.401733 10.9787 0.151726 11.4879 0.0504398C11.9971 -0.0508464 12.5249 0.00113739 13.0045 0.199817C13.4842 0.398497 13.8942 0.73495 14.1826 1.16663C14.471 1.59831 14.625 2.10583 14.625 2.625C14.6243 3.32097 14.3475 3.98821 13.8553 4.48033C13.3632 4.97246 12.696 5.24926 12 5.25Z" fill="black"/>
<path d="M20.25 5.28743L20.2289 5.29306L20.2092 5.29915C20.1624 5.31228 20.1155 5.32634 20.0686 5.34087C19.1963 5.59681 14.9625 6.79025 11.9799 6.79025C9.20815 6.79025 5.35736 5.759 4.12549 5.40884C4.00288 5.36145 3.87768 5.32108 3.75049 5.2879C2.85986 5.05353 2.25049 5.95821 2.25049 6.78509C2.25049 7.604 2.98643 7.994 3.72939 8.27384V8.28697L8.19283 9.68103C8.64893 9.85587 8.7708 10.0345 8.83033 10.1892C9.02393 10.6856 8.86924 11.6685 8.81439 12.0117L8.54252 14.121L7.03361 22.3799C7.02893 22.4024 7.02471 22.4254 7.02096 22.4488L7.01018 22.5084C6.90143 23.2654 7.45736 23.9999 8.51018 23.9999C9.42893 23.9999 9.83439 23.3657 10.0102 22.5027C10.186 21.6398 11.3227 15.1167 11.9789 15.1167C12.6352 15.1167 13.9871 22.5027 13.9871 22.5027C14.1628 23.3657 14.5683 23.9999 15.4871 23.9999C16.5427 23.9999 17.0986 23.2621 16.9871 22.5027C16.9775 22.4389 16.9656 22.3754 16.9514 22.3124L15.4219 14.122L15.1505 12.0126C14.9541 10.784 15.1121 10.3781 15.1655 10.2829C15.1669 10.2807 15.1682 10.2783 15.1692 10.2759C15.2199 10.1821 15.4505 9.97212 15.9886 9.77009L20.1736 8.30712C20.1993 8.30027 20.2247 8.29213 20.2495 8.28275C20.9995 8.0015 21.7495 7.61243 21.7495 6.78603C21.7495 5.95962 21.1406 5.05353 20.25 5.28743Z" fill="black"/>
</svg>
