<svg viewBox="0 0 24 24" fill="none" xmlns="http://www.w3.org/2000/svg">
<path fill-rule="evenodd" clip-rule="evenodd" d="M5.06359 21.4526H18.9364C19.2464 21.4526 19.5083 21.2055 19.5483 20.8752L20.5545 12.5854C20.6027 12.1885 20.3151 11.8365 19.9426 11.8365H4.05741C3.68489 11.8365 3.39729 12.1885 3.44547 12.5854L4.45165 20.8752C4.49174 21.2055 4.75362 21.4526 5.06359 21.4526ZM5.06359 23H18.9364C19.9697 23 20.8426 22.1763 20.9762 21.0753L21.9824 12.7856C22.143 11.4624 21.1843 10.2891 19.9426 10.2891H4.05741C2.81566 10.2891 1.857 11.4624 2.01761 12.7856L3.02379 21.0753C3.15743 22.1763 4.03035 23 5.06359 23Z" fill="black"/>
<path fill-rule="evenodd" clip-rule="evenodd" d="M4.85801 6.396C4.6633 6.396 4.51726 6.58743 4.55544 6.79261L4.76648 7.9267C4.84446 8.34572 4.59158 8.75332 4.20167 8.83711C3.81175 8.92091 3.43246 8.64916 3.35448 8.23015L3.14344 7.09605C2.92707 5.93335 3.75463 4.84858 4.85801 4.84858L19.171 4.8486C20.3085 4.8486 21.1432 5.99745 20.8673 7.18339L20.6153 8.26612C20.5189 8.68067 20.128 8.9327 19.7422 8.82905C19.3565 8.7254 19.1219 8.30531 19.2184 7.89077L19.4703 6.80804C19.519 6.59875 19.3717 6.39601 19.171 6.39601L4.85801 6.396Z" fill="black"/>
<path fill-rule="evenodd" clip-rule="evenodd" d="M4.59449 1.77371C4.59449 1.3464 4.91683 1 5.31447 1H18.6855C19.0831 1 19.4055 1.3464 19.4055 1.77371C19.4055 2.20102 19.0831 2.54742 18.6855 2.54742H5.31447C4.91683 2.54742 4.59449 2.20102 4.59449 1.77371Z" fill="black"/>
<path fill-rule="evenodd" clip-rule="evenodd" d="M8.70865 15.2629C8.70865 14.8356 9.031 14.4892 9.42863 14.4892H14.5713C14.969 14.4892 15.2913 14.8356 15.2913 15.2629C15.2913 15.6902 14.969 16.0366 14.5713 16.0366H9.42863C9.031 16.0366 8.70865 15.6902 8.70865 15.2629Z" fill="black"/>
</svg>
