<svg viewBox="0 0 24 24" fill="none" xmlns="http://www.w3.org/2000/svg">
<path d="M16.5823 15.2314C16.5815 15.6177 16.8941 15.9316 17.2805 15.9324C17.6668 15.9332 17.9807 15.6206 17.9815 15.2343L17.9992 6.70103C17.9996 6.51498 17.9258 6.33644 17.7943 6.20488C17.6627 6.07333 17.4841 5.9996 17.2981 6L8.76557 6.01838C8.37921 6.01921 8.06667 6.3331 8.0675 6.71946C8.06833 7.10583 8.38222 7.41837 8.76859 7.41754L15.6078 7.40281L6.2049 16.8057C5.9317 17.0789 5.9317 17.5219 6.2049 17.7951C6.47811 18.0683 6.92106 18.0683 7.19426 17.7951L16.5965 8.39285L16.5823 15.2314Z" fill="black"/>
</svg>
