<svg viewBox="0 0 24 24" fill="none" xmlns="http://www.w3.org/2000/svg">
<path fill-rule="evenodd" clip-rule="evenodd" d="M18.494 2.46772C17.779 2.37899 17.0627 2.62295 16.5532 3.12876L4.59368 15.0006C4.01239 15.5776 3.63158 16.3236 3.50658 17.1301C3.14639 19.4542 4.95784 21.5502 7.32665 21.5502H7.69347C8.83571 21.5502 9.92819 21.0862 10.7169 20.266L20.2199 10.3834C20.4984 10.0938 20.9606 10.0831 21.2524 10.3595C21.5441 10.636 21.5548 11.0948 21.2764 11.3844L11.7733 21.267C10.7091 22.3738 9.23484 23 7.69347 23H7.32665C4.06273 23 1.56677 20.112 2.06307 16.9097C2.23531 15.7984 2.76001 14.7705 3.56095 13.9754L15.5204 2.1036C16.3487 1.28144 17.5129 0.884909 18.6751 1.02913C20.5746 1.26482 22 2.86765 22 4.76785V4.90098C22 5.94026 21.5841 6.93698 20.8438 7.67187L11.3749 17.0714C10.502 17.9378 9.08686 17.9378 8.21401 17.0714C7.36574 16.2293 7.33841 14.8727 8.15211 13.9976L13.4307 8.32109C13.7042 8.02692 14.1662 8.00857 14.4626 8.28012C14.7589 8.55167 14.7774 9.01028 14.5039 9.30446L9.22528 14.981C8.9433 15.2843 8.95276 15.7544 9.24674 16.0462C9.54922 16.3465 10.0397 16.3465 10.3421 16.0462L19.8111 6.64671C20.2775 6.18371 20.5395 5.55575 20.5395 4.90098V4.76785C20.5395 3.59882 19.6626 2.61272 18.494 2.46772Z" fill="black"/>
</svg>
