<svg viewBox="0 0 24 24" fill="none" xmlns="http://www.w3.org/2000/svg">
<path fill-rule="evenodd" clip-rule="evenodd" d="M12 20.6C16.7496 20.6 20.6 16.7496 20.6 12C20.6 7.25035 16.7496 3.4 12 3.4C7.25035 3.4 3.4 7.25035 3.4 12C3.4 16.7496 7.25035 20.6 12 20.6ZM12 22C17.5228 22 22 17.5228 22 12C22 6.47715 17.5228 2 12 2C6.47715 2 2 6.47715 2 12C2 17.5228 6.47715 22 12 22Z" fill="black"/>
<path d="M11 16.0053C11 15.5085 11.4032 15.0981 11.8999 15.0981C12.3967 15.0981 12.7999 15.4953 12.7999 15.9921V16.0053C12.7999 16.502 12.3967 16.9052 11.8999 16.9052C11.4032 16.9052 11 16.502 11 16.0053Z" fill="black"/>
<path fill-rule="evenodd" clip-rule="evenodd" d="M11.8999 7.29999C12.2865 7.29999 12.5999 7.61339 12.5999 7.99999V12.5C12.5999 12.8866 12.2865 13.2 11.8999 13.2C11.5133 13.2 11.1999 12.8866 11.1999 12.5V7.99999C11.1999 7.61339 11.5133 7.29999 11.8999 7.29999Z" fill="black"/>
</svg>
