<svg viewBox="0 0 16 16" fill="none" xmlns="http://www.w3.org/2000/svg">
<path fill-rule="evenodd" clip-rule="evenodd" d="M7.5072 12.0674C7.79702 11.9342 8.13397 11.9335 8.4244 12.0654L12.0954 13.7332C12.3608 13.8538 12.6666 13.6681 12.6666 13.3863V3.89284C12.6666 2.97425 11.8905 2.22958 10.9332 2.22958H5.06657C4.10928 2.22958 3.33324 2.97425 3.33324 3.89284V13.3763C3.33324 13.6588 3.64051 13.8445 3.90602 13.7225L7.5072 12.0674ZM4.30919 14.5302L7.91036 12.8751C7.94659 12.8585 7.98871 12.8584 8.02501 12.8749L11.696 14.5427C12.5806 14.9446 13.5999 14.3255 13.5999 13.3863V3.89284C13.5999 2.47962 12.406 1.33398 10.9332 1.33398H5.06657C3.59381 1.33398 2.3999 2.47962 2.3999 3.89284V13.3763C2.3999 14.3179 3.42415 14.9369 4.30919 14.5302Z" fill="#000" />
<path fill-rule="evenodd" clip-rule="evenodd" d="M4.96236 5.78366C4.96236 5.53635 5.1713 5.33586 5.42903 5.33586H10.4527C10.7104 5.33586 10.9194 5.53635 10.9194 5.78366C10.9194 6.03098 10.7104 6.23146 10.4527 6.23146H5.42903C5.1713 6.23146 4.96236 6.03098 4.96236 5.78366Z" fill="#000" />
</svg>
