<svg viewBox="0 0 24 24" fill="none" xmlns="http://www.w3.org/2000/svg">
<path d="M2 5C2 4.44771 2.44772 4 3 4H21C21.5523 4 22 4.44772 22 5V5.4C22 5.95229 21.5523 6.4 21 6.4H3C2.44772 6.4 2 5.95228 2 5.4V5Z" fill="#000"/>
<path d="M2 11.8C2 11.2478 2.44772 10.8 3 10.8H21C21.5523 10.8 22 11.2478 22 11.8V12.2C22 12.7523 21.5523 13.2 21 13.2H3C2.44772 13.2 2 12.7523 2 12.2V11.8Z" fill="#000"/>
<path d="M2 18.6001C2 18.0478 2.44772 17.6001 3 17.6001H21C21.5523 17.6001 22 18.0478 22 18.6001V19.0001C22 19.5524 21.5523 20.0001 21 20.0001H3C2.44772 20.0001 2 19.5524 2 19.0001V18.6001Z" fill="#000"/>
</svg>
