<svg viewBox="0 0 24 24" fill="none" xmlns="http://www.w3.org/2000/svg">
<path d="M7 16.2212C7 15.7733 7.35817 15.4101 7.8 15.4101C8.24183 15.4101 8.6 15.7733 8.6 16.2212C8.6 16.6691 8.24183 17.0323 7.8 17.0323C7.35817 17.0323 7 16.6691 7 16.2212Z" fill="black"/>
<path d="M11.2813 12.1659C11.2813 11.718 11.6395 11.3548 12.0813 11.3548C12.5231 11.3548 12.8813 11.718 12.8813 12.1659C12.8813 12.6138 12.5231 12.977 12.0813 12.977C11.6395 12.977 11.2813 12.6138 11.2813 12.1659Z" fill="black"/>
<path d="M11.2813 16.2212C11.2813 15.7733 11.6395 15.4101 12.0813 15.4101C12.5231 15.4101 12.8813 15.7733 12.8813 16.2212C12.8813 16.6691 12.5231 17.0323 12.0813 17.0323C11.6395 17.0323 11.2813 16.6691 11.2813 16.2212Z" fill="black"/>
<path d="M15.2 12.1659C15.2 11.718 15.5582 11.3548 16 11.3548C16.4418 11.3548 16.8 11.718 16.8 12.1659C16.8 12.6138 16.4418 12.977 16 12.977C15.5582 12.977 15.2 12.6138 15.2 12.1659Z" fill="black"/>
<path d="M15.2 16.2212C15.2 15.7733 15.5582 15.4101 16 15.4101C16.4418 15.4101 16.8 15.7733 16.8 16.2212C16.8 16.6691 16.4418 17.0323 16 17.0323C15.5582 17.0323 15.2 16.6691 15.2 16.2212Z" fill="black"/>
<path d="M7 12.1659C7 11.718 7.35817 11.3548 7.8 11.3548C8.24183 11.3548 8.6 11.718 8.6 12.1659C8.6 12.6138 8.24183 12.977 7.8 12.977C7.35817 12.977 7 12.6138 7 12.1659Z" fill="black"/>
<path fill-rule="evenodd" clip-rule="evenodd" d="M2 16.9309V6.79264C2 3.99304 4.23858 1.72351 7 1.72351H7.17288V0.709677C7.17288 0.317733 7.48628 0 7.87288 0C8.25948 0 8.57288 0.317733 8.57288 0.709677V1.72351H15.2513V0.709677C15.2513 0.317733 15.5647 0 15.9513 0C16.3379 0 16.6513 0.317733 16.6513 0.709677V1.72351H17C19.7614 1.72351 22 3.99304 22 6.79264V16.9309C22 19.7305 19.7614 22 17 22H7C4.23858 22 2 19.7305 2 16.9309ZM3.4 16.9309C3.4 18.9466 5.01178 20.5806 7 20.5806H17C18.9882 20.5806 20.6 18.9466 20.6 16.9309V8.9262H3.4V16.9309ZM20.6 6.79264C20.6 4.77692 18.9882 3.14287 17 3.14287H16.6513V4.04595C16.6513 4.43789 16.3379 4.75563 15.9513 4.75563C15.5647 4.75563 15.2513 4.43789 15.2513 4.04595V3.14287H8.57288V4.04595C8.57288 4.43789 8.25948 4.75563 7.87288 4.75563C7.48628 4.75563 7.17288 4.43789 7.17288 4.04595V3.14287H7C5.01178 3.14287 3.4 4.77692 3.4 6.79264V7.50684H20.6V6.79264Z" fill="black"/>
<path fill-rule="evenodd" clip-rule="evenodd" d="M7.8 17.0323C7.35817 17.0323 7 16.6691 7 16.2212C7 15.7733 7.35817 15.4101 7.8 15.4101C8.24183 15.4101 8.6 15.7733 8.6 16.2212C8.6 16.6691 8.24183 17.0323 7.8 17.0323ZM12.0813 12.977C11.6395 12.977 11.2813 12.6138 11.2813 12.1659C11.2813 11.718 11.6395 11.3548 12.0813 11.3548C12.5231 11.3548 12.8813 11.718 12.8813 12.1659C12.8813 12.6138 12.5231 12.977 12.0813 12.977ZM12.0813 17.0323C11.6395 17.0323 11.2813 16.6691 11.2813 16.2212C11.2813 15.7733 11.6395 15.4101 12.0813 15.4101C12.5231 15.4101 12.8813 15.7733 12.8813 16.2212C12.8813 16.6691 12.5231 17.0323 12.0813 17.0323ZM16 12.977C15.5582 12.977 15.2 12.6138 15.2 12.1659C15.2 11.718 15.5582 11.3548 16 11.3548C16.4418 11.3548 16.8 11.718 16.8 12.1659C16.8 12.6138 16.4418 12.977 16 12.977ZM16 17.0323C15.5582 17.0323 15.2 16.6691 15.2 16.2212C15.2 15.7733 15.5582 15.4101 16 15.4101C16.4418 15.4101 16.8 15.7733 16.8 16.2212C16.8 16.6691 16.4418 17.0323 16 17.0323ZM7.8 12.977C7.35817 12.977 7 12.6138 7 12.1659C7 11.718 7.35817 11.3548 7.8 11.3548C8.24183 11.3548 8.6 11.718 8.6 12.1659C8.6 12.6138 8.24183 12.977 7.8 12.977Z" fill="black"/>
</svg>
