<svg viewBox="0 0 24 24" fill="none" xmlns="http://www.w3.org/2000/svg">
<path fill-rule="evenodd" clip-rule="evenodd" d="M5.56125 10.2219C5.56125 9.65134 6.02153 9.18882 6.5893 9.18882H6.59671C7.16448 9.18882 7.62476 9.65134 7.62476 10.2219C7.62476 10.7924 7.16448 11.2549 6.59671 11.2549H6.5893C6.02153 11.2549 5.56125 10.7924 5.56125 10.2219Z" fill="#000"/>
<path fill-rule="evenodd" clip-rule="evenodd" d="M12.1557 10.2219C12.1557 9.65134 12.616 9.18882 13.1838 9.18882H13.1912C13.759 9.18882 14.2193 9.65134 14.2193 10.2219C14.2193 10.7924 13.759 11.2549 13.1912 11.2549H13.1838C12.616 11.2549 12.1557 10.7924 12.1557 10.2219Z" fill="#000"/>
<path fill-rule="evenodd" clip-rule="evenodd" d="M8.8585 10.2219C8.8585 9.65134 9.31877 9.18882 9.88655 9.18882H9.89395C10.4617 9.18882 10.922 9.65134 10.922 10.2219C10.922 10.7924 10.4617 11.2549 9.89395 11.2549H9.88655C9.31877 11.2549 8.8585 10.7924 8.8585 10.2219Z" fill="#000"/>
<path fill-rule="evenodd" clip-rule="evenodd" d="M16.2682 3.52354C13.0819 0.321993 7.1263 -0.000487208 3.62057 3.52352C0.9101 6.2468 0.307153 10.27 1.78878 13.5793C1.78882 13.5899 1.7887 13.6028 1.78827 13.6181C1.78568 13.71 1.77448 13.8385 1.75496 14.0069C1.73681 14.1635 1.71346 14.3382 1.68767 14.5312L1.68293 14.5667C1.65564 14.771 1.62629 14.9922 1.60043 15.2162C1.5495 15.6572 1.50768 16.1435 1.52627 16.5741C1.5356 16.79 1.56091 17.0167 1.61906 17.2293C1.67573 17.4365 1.77833 17.6841 1.97852 17.8853C2.17877 18.0863 2.42484 18.1889 2.63093 18.2458C2.84241 18.3041 3.06796 18.3295 3.28276 18.3389C3.71111 18.3575 4.19499 18.3155 4.63379 18.2644C4.85663 18.2384 5.07676 18.209 5.28005 18.1816L5.31495 18.1769C5.5071 18.151 5.68112 18.1275 5.83701 18.1093C6.00453 18.0897 6.13238 18.0785 6.22389 18.0759C6.23915 18.0755 6.25195 18.0753 6.2625 18.0754C7.65179 18.7031 9.16585 18.9583 10.6555 18.8397C10.9654 19.6733 11.4537 20.4547 12.1191 21.1234C14.0377 23.0521 16.8648 23.4897 19.2021 22.4565C19.2541 22.4591 19.3267 22.4657 19.4237 22.477C19.5289 22.4893 19.6468 22.5052 19.7798 22.5232L19.8027 22.5263C19.9424 22.5451 20.0955 22.5656 20.251 22.5837C20.555 22.6191 20.9023 22.6498 21.2155 22.6362C21.3727 22.6294 21.5459 22.6105 21.7134 22.5644C21.8755 22.5196 22.0861 22.4344 22.2616 22.2582C22.4372 22.0818 22.5218 21.8704 22.5664 21.7075C22.6124 21.5392 22.6312 21.365 22.638 21.2069C22.6516 20.8922 22.621 20.5431 22.5857 20.2375C22.5677 20.0813 22.5472 19.9274 22.5285 19.787L22.5254 19.7636C22.5075 19.6301 22.4917 19.5117 22.4795 19.406C22.4682 19.3086 22.4616 19.2357 22.459 19.1834C23.4877 16.8348 23.0515 13.9932 21.1326 12.0652C20.4671 11.3962 19.6893 10.9057 18.8596 10.5945C19.0598 8.06444 18.1977 5.46214 16.2682 3.52354ZM15.2506 4.54628C12.5935 1.87654 7.54977 1.61939 4.63835 4.54615C2.34577 6.84945 1.84742 10.264 3.1344 13.0587C3.13951 13.0698 3.14434 13.0811 3.14888 13.0924C3.23355 13.3038 3.23036 13.5381 3.22696 13.6589C3.22255 13.8159 3.20535 13.995 3.18457 14.1743C3.16489 14.344 3.13993 14.5308 3.1147 14.7195L3.10941 14.7591C3.08205 14.9639 3.05431 15.1733 3.03011 15.3829C2.98092 15.8089 2.95079 16.2009 2.96419 16.5114C2.97087 16.666 2.98755 16.7754 3.00686 16.846L3.00797 16.85L3.01195 16.8511C3.08225 16.8705 3.19117 16.8872 3.34502 16.8939C3.65398 16.9074 4.04415 16.8771 4.46803 16.8277C4.67653 16.8034 4.88491 16.7756 5.08876 16.7481L5.12754 16.7429C5.31554 16.7175 5.50163 16.6924 5.67068 16.6727C5.84908 16.6518 6.02729 16.6346 6.18345 16.6302C6.30365 16.6268 6.53684 16.6236 6.74714 16.7087C6.75836 16.7132 6.76947 16.7181 6.78044 16.7232C8.12514 17.3481 9.61534 17.5543 11.0552 17.3393C12.5898 17.11 14.0662 16.4025 15.2504 15.2119C16.4322 14.0242 17.1374 12.5396 17.3663 10.9962C17.705 8.712 17.0004 6.3044 15.2506 4.54628ZM19.138 22.456C19.138 22.456 19.1415 22.4554 19.1498 22.4553C19.1424 22.456 19.138 22.456 19.138 22.456ZM22.4584 19.1189C22.4584 19.1189 22.4585 19.1233 22.4578 19.1307C22.4579 19.1224 22.4584 19.1189 22.4584 19.1189ZM18.6221 12.0582C18.2427 13.589 17.4575 15.0393 16.2683 16.2345C15.0773 17.4318 13.6347 18.2206 12.1123 18.6013C12.3515 19.1451 12.6929 19.6546 13.1369 20.1008C14.6434 21.6153 16.8767 21.945 18.7067 21.0945C18.7176 21.0894 18.7288 21.0846 18.74 21.0801C18.9327 21.0021 19.1363 21.0075 19.2178 21.0098C19.3353 21.0131 19.4657 21.0259 19.59 21.0405C19.7083 21.0543 19.8381 21.0718 19.9667 21.0891L19.994 21.0928C20.1342 21.1117 20.2756 21.1306 20.4168 21.147C20.7058 21.1807 20.9594 21.1997 21.1532 21.1913C21.169 21.1906 21.1838 21.1897 21.1976 21.1887C21.1985 21.175 21.1994 21.1601 21.2001 21.1442C21.2085 20.9496 21.1896 20.6947 21.156 20.4042C21.1397 20.2624 21.1208 20.1203 21.102 19.9794L21.0983 19.9517C21.0811 19.8225 21.0636 19.6922 21.0499 19.5734C21.0354 19.4484 21.0226 19.3174 21.0193 19.1993C21.017 19.1175 21.0116 18.9128 21.0891 18.7191C21.0937 18.7077 21.0985 18.6965 21.1036 18.6854C21.9502 16.847 21.622 14.602 20.1149 13.0878C19.6708 12.6415 19.1635 12.2984 18.6221 12.0582Z" fill="#000"/>
<path fill-rule="evenodd" clip-rule="evenodd" d="M6.5893 9.18882C6.02153 9.18882 5.56125 9.65134 5.56125 10.2219C5.56125 10.7924 6.02153 11.2549 6.5893 11.2549H6.59671C7.16448 11.2549 7.62476 10.7924 7.62476 10.2219C7.62476 9.65134 7.16448 9.18882 6.59671 9.18882H6.5893ZM13.1838 9.18882C12.616 9.18882 12.1557 9.65134 12.1557 10.2219C12.1557 10.7924 12.616 11.2549 13.1838 11.2549H13.1912C13.759 11.2549 14.2193 10.7924 14.2193 10.2219C14.2193 9.65134 13.759 9.18882 13.1912 9.18882H13.1838ZM9.88655 9.18882C9.31877 9.18882 8.8585 9.65134 8.8585 10.2219C8.8585 10.7924 9.31877 11.2549 9.88655 11.2549H9.89395C10.4617 11.2549 10.922 10.7924 10.922 10.2219C10.922 9.65134 10.4617 9.18882 9.89395 9.18882H9.88655Z" fill="#000"/>
<path fill-rule="evenodd" clip-rule="evenodd" d="M19.138 22.456C19.138 22.456 19.1415 22.4554 19.1498 22.4553C19.1424 22.456 19.138 22.456 19.138 22.456ZM22.4584 19.1189C22.4584 19.1189 22.4585 19.1233 22.4578 19.1307C22.4579 19.1224 22.4584 19.1189 22.4584 19.1189Z" fill="#000"/>
</svg>
