<svg viewBox="0 0 24 24" fill="none" xmlns="http://www.w3.org/2000/svg">
<path fill-rule="evenodd" clip-rule="evenodd" d="M3.4 7V17C3.4 18.9882 5.01178 20.6 7 20.6H17C18.9882 20.6 20.6 18.9882 20.6 17V7C20.6 5.01178 18.9882 3.4 17 3.4H7C5.01178 3.4 3.4 5.01178 3.4 7ZM2 7V17C2 19.7614 4.23858 22 7 22H17C19.7614 22 22 19.7614 22 17V7C22 4.23858 19.7614 2 17 2H7C4.23858 2 2 4.23858 2 7Z" fill="black"/>
<path fill-rule="evenodd" clip-rule="evenodd" d="M12 7.29999C12.3866 7.29999 12.7 7.61339 12.7 7.99999V11.9635L15.7496 13.7828C16.0816 13.9809 16.1902 14.4106 15.9922 14.7426C15.7941 15.0746 15.3644 15.1832 15.0324 14.9851L11.6414 12.9621C11.4297 12.8358 11.3 12.6075 11.3 12.361V7.99999C11.3 7.61339 11.6134 7.29999 12 7.29999Z" fill="black"/>
</svg>
