<svg viewBox="0 0 24 24" fill="none" xmlns="http://www.w3.org/2000/svg">
<path fill-rule="evenodd" clip-rule="evenodd" d="M12 20.6C16.7496 20.6 20.6 16.7496 20.6 12C20.6 7.25035 16.7496 3.4 12 3.4C7.25035 3.4 3.4 7.25035 3.4 12C3.4 16.7496 7.25035 20.6 12 20.6ZM12 22C17.5228 22 22 17.5228 22 12C22 6.47715 17.5228 2 12 2C6.47715 2 2 6.47715 2 12C2 17.5228 6.47715 22 12 22Z" fill="black"/>
<path fill-rule="evenodd" clip-rule="evenodd" d="M11.7 7.10284C12.0866 7.10284 12.4 7.41624 12.4 7.80284V12.2523L15.8286 14.2977C16.1606 14.4957 16.2692 14.9255 16.0712 15.2575C15.8731 15.5895 15.4434 15.6981 15.1114 15.5L11.3414 13.251C11.1297 13.1247 11 12.8964 11 12.6498V7.80284C11 7.41624 11.3134 7.10284 11.7 7.10284Z" fill="black"/>
</svg>
