<svg viewBox="0 0 24 24" fill="none" xmlns="http://www.w3.org/2000/svg">
<path fill-rule="evenodd" clip-rule="evenodd" d="M9.92461 2C9.04725 2 8.27632 2.60345 8.04868 3.47695C8.04489 3.49147 8.04156 3.50611 8.03869 3.52085L7.80043 4.74411C7.71348 5.18889 7.33206 5.50983 6.88997 5.50983L6.87116 5.51009H3.68635C3.30729 5.51009 3 5.82536 3 6.21427C3 6.60317 3.30729 6.91845 3.68635 6.91845H20.3137C20.6927 6.91845 21 6.60317 21 6.21427C21 5.82536 20.6927 5.51009 20.3137 5.51009H17.1285L17.1097 5.50983C16.6676 5.50983 16.2861 5.18861 16.1992 4.74383L15.961 3.52085C15.9581 3.50611 15.9548 3.49147 15.951 3.47695C15.7234 2.60345 14.9524 2 14.0751 2H9.92461ZM15.0041 5.51009C14.9377 5.35548 14.8866 5.19163 14.8532 5.02038L14.62 3.82325C14.548 3.57749 14.3272 3.40836 14.0751 3.40836H9.92461C9.67248 3.40836 9.45168 3.57749 9.37963 3.82325L9.14651 5.02009C9.11307 5.19144 9.06201 5.35539 8.99549 5.51009H15.0041Z" fill="black"/>
<path d="M15.8164 21.9639C14.522 21.9878 13.2264 22.0005 11.9307 22C10.6333 22.0005 9.33605 21.9879 8.03997 21.9639L8.0401 21.9566C7.28271 21.9259 6.61065 21.6674 6.10095 21.169C5.5781 20.6578 5.2868 19.9536 5.20105 19.1574C5.04457 17.7079 4.83381 15.2903 4.66269 13.2423C4.577 12.2168 4.50104 11.2814 4.4465 10.6023C4.41923 10.2628 4.39731 9.98737 4.38221 9.79676L4.35881 9.50025C4.32843 9.11259 4.6101 8.77298 4.98794 8.74182C5.36578 8.71065 5.69671 8.99972 5.72709 9.38737L5.75039 9.68265C5.76546 9.87281 5.78734 10.1477 5.81456 10.4867C5.86901 11.1646 5.94484 12.0984 6.03037 13.122C6.20168 15.1723 6.41108 17.5729 6.56541 19.0024C6.62383 19.5451 6.80809 19.9149 7.04801 20.1495C7.28473 20.381 7.63574 20.5402 8.14164 20.5508C9.4036 20.5781 10.6669 20.5911 11.9306 20.5916C13.1927 20.5911 14.4544 20.5781 15.7148 20.5508C16.2207 20.5402 16.5717 20.381 16.8084 20.1495C17.0483 19.9149 17.2326 19.5451 17.291 19.0024C17.4453 17.5729 17.6547 15.1723 17.826 13.122C17.9116 12.0984 17.9874 11.1646 18.0418 10.4867C18.0691 10.1477 18.0909 9.87281 18.106 9.68265L18.1293 9.38737C18.1597 8.99972 18.4906 8.71065 18.8685 8.74182C19.2463 8.77298 19.528 9.11259 19.4976 9.50025L19.4742 9.79676C19.4591 9.98737 19.4372 10.2628 19.4099 10.6023C19.3554 11.2814 19.2794 12.2168 19.1937 13.2423C19.0226 15.2903 18.8118 17.7079 18.6553 19.1574C18.5696 19.9536 18.2783 20.6578 17.7554 21.169C17.2458 21.6674 16.5737 21.9259 15.8163 21.9566L15.8164 21.9639Z" fill="black"/>
</svg>
