<svg viewBox="0 0 16 16" fill="none" xmlns="http://www.w3.org/2000/svg">
<path fill-rule="evenodd" clip-rule="evenodd" d="M3.33324 4.66732V11.334C3.33324 12.6595 4.40775 13.734 5.73324 13.734H10.2666C11.5921 13.734 12.6666 12.6595 12.6666 11.334V4.66732C12.6666 3.34184 11.5921 2.26732 10.2666 2.26732H5.73324C4.40775 2.26732 3.33324 3.34183 3.33324 4.66732ZM2.3999 11.334V4.66732C2.3999 2.82637 3.89229 1.33398 5.73324 1.33398H10.2666C12.1075 1.33398 13.5999 2.82637 13.5999 4.66732V11.334C13.5999 13.1749 12.1075 14.6673 10.2666 14.6673H5.73324C3.89229 14.6673 2.3999 13.1749 2.3999 11.334Z" fill="#000"/>
<path fill-rule="evenodd" clip-rule="evenodd" d="M5.19984 5.66731C5.19984 5.40958 5.40877 5.20064 5.66651 5.20064H7.66651C7.92424 5.20064 8.13317 5.40958 8.13317 5.66731C8.13317 5.92504 7.92424 6.13398 7.66651 6.13398H5.66651C5.40877 6.13398 5.19984 5.92504 5.19984 5.66731Z" fill="#000"/>
<path fill-rule="evenodd" clip-rule="evenodd" d="M5.19984 8.33398C5.19984 8.07624 5.40877 7.86731 5.66651 7.86731H10.3332C10.5909 7.86731 10.7998 8.07624 10.7998 8.33398C10.7998 8.59171 10.5909 8.80064 10.3332 8.80064H5.66651C5.40877 8.80064 5.19984 8.59171 5.19984 8.33398Z" fill="#000"/>
<path fill-rule="evenodd" clip-rule="evenodd" d="M5.19984 11.0006C5.19984 10.7429 5.40877 10.534 5.66651 10.534H10.3332C10.5909 10.534 10.7998 10.7429 10.7998 11.0006C10.7998 11.2584 10.5909 11.4673 10.3332 11.4673H5.66651C5.40877 11.4673 5.19984 11.2584 5.19984 11.0006Z" fill="#000"/>
</svg>
