<svg viewBox="0 0 24 24" fill="none" xmlns="http://www.w3.org/2000/svg">
<path fill-rule="evenodd" clip-rule="evenodd" d="M6.72362 21C4.11483 21 2 18.9448 2 16.4096V12.2646C2 9.72941 4.11484 7.67423 6.72362 7.67423H7.34472C7.73326 7.67423 8.04824 7.98032 8.04824 8.3579C8.04824 8.73549 7.73326 9.04158 7.34472 9.04158H6.72362C4.89192 9.04158 3.40703 10.4846 3.40703 12.2646L3.40703 16.4096C3.40703 18.1896 4.89192 19.6327 6.72362 19.6327H17.2764C19.1081 19.6327 20.593 18.1897 20.593 16.4096V12.2646C20.593 10.4846 19.1081 9.04158 17.2764 9.04158H16.6563C16.2677 9.04158 15.9528 8.73549 15.9528 8.3579C15.9528 7.98032 16.2677 7.67423 16.6563 7.67423H17.2764C19.8852 7.67423 22 9.72942 22 12.2646V16.4096C22 18.9448 19.8852 21 17.2764 21H6.72362Z" fill="#000"/>
<path d="M12.704 2.68367C12.704 2.30609 12.3891 2 12.0005 2C11.612 2 11.297 2.30609 11.297 2.68367L11.297 12.788L9.56863 11.1015C9.29445 10.8339 8.84901 10.8331 8.57371 11.0995C8.2984 11.3659 8.29749 11.7988 8.57166 12.0664L11.5023 14.9261C11.6343 15.0549 11.8134 15.1275 12.0005 15.1275C12.1876 15.1275 12.3674 15.0548 12.4994 14.926L15.429 12.0663C15.7031 11.7987 15.7022 11.3658 15.4268 11.0994C15.1514 10.833 14.706 10.834 14.4319 11.1016L12.704 12.7882L12.704 2.68367Z" fill="#000"/>
</svg>
