<svg viewBox="0 0 20 21" fill="none" xmlns="http://www.w3.org/2000/svg">
<path fill-rule="evenodd" clip-rule="evenodd" d="M11.221 17.4231C11.221 17.1044 11.4864 16.8462 11.8137 16.8462H17.7406C18.068 16.8462 18.3333 17.1044 18.3333 17.4231C18.3333 17.7417 18.068 18 17.7406 18H11.8137C11.4864 18 11.221 17.7417 11.221 17.4231Z" fill="#000"/>
<path fill-rule="evenodd" clip-rule="evenodd" d="M10.7748 3.7004C11.5226 2.76833 12.7311 2.81697 13.6849 3.54853L15.0953 4.63048C16.0491 5.36205 16.387 6.49661 15.6392 7.43067L7.68478 17.2307C7.40371 17.5821 6.9745 17.7895 6.51789 17.7945L3.27392 17.8352L2.53928 14.7432C2.43579 14.3094 2.53928 13.8528 2.82035 13.5004L10.7748 3.7004ZM3.75468 14.2105C3.69313 14.2892 3.67175 14.3891 3.69393 14.4821L3.69418 14.4832L4.21362 16.6694L6.50465 16.6407C6.59934 16.6397 6.68952 16.5967 6.74947 16.5218L6.75465 16.5153L12.8475 9.00885L9.78906 6.77605L3.75468 14.2105ZM14.7062 6.71893C14.8633 6.52145 14.8817 6.35461 14.8472 6.20056C14.8063 6.01797 14.6659 5.77011 14.3617 5.5368L12.9513 4.45484C12.6476 4.22193 12.37 4.14939 12.1831 4.15408C12.0262 4.15801 11.8672 4.21343 11.709 4.41062L11.7049 4.41572L10.5242 5.87039L13.5826 8.1032L14.7062 6.71893Z" fill="#000"/>
</svg>
