<svg viewBox="0 0 28 28" fill="none" xmlns="http://www.w3.org/2000/svg">
<path fill-rule="evenodd" clip-rule="evenodd" d="M19.5054 14.3231C19.9279 14.2851 20.2994 14.619 20.3351 15.0689L20.7213 19.939C20.797 20.8934 20.2218 21.7694 19.3539 22.0214L15.6453 23.0982C14.5683 23.4109 13.4324 23.4109 12.3554 23.0982L8.6224 22.0143C7.77308 21.7677 7.20145 20.9222 7.25132 19.9865L7.51216 15.0913C7.53618 14.6406 7.89886 14.2959 8.32223 14.3215C8.74559 14.347 9.06933 14.7332 9.04531 15.1839L8.78446 20.0791C8.77566 20.2442 8.87654 20.3934 9.02642 20.4369L12.7594 21.5208C13.5719 21.7567 14.4288 21.7567 15.2413 21.5208L18.9499 20.444C19.103 20.3995 19.2045 20.245 19.1912 20.0765L18.8049 15.2064C18.7692 14.7565 19.0829 14.361 19.5054 14.3231Z" fill="#000"/>
<path fill-rule="evenodd" clip-rule="evenodd" d="M15.8466 4.96288C14.6438 4.56706 13.3568 4.56706 12.154 4.96289L2.17935 8.24914C2.14635 8.26496 2.06138 8.30634 2.01432 8.33444C1.92143 8.38991 1.79939 8.47534 1.6762 8.59971C1.41924 8.85911 1.16699 9.28274 1.16699 9.88227C1.16699 10.4782 1.41451 10.9007 1.67019 11.1612C1.79258 11.2858 1.91399 11.3715 2.00666 11.4271C2.05358 11.4553 2.16748 11.5089 2.20049 11.5248L3.97703 12.1107C3.87979 12.2031 3.78258 12.3086 3.69546 12.427C3.53447 12.6458 3.36063 12.9737 3.36066 13.3859L3.36067 13.7197C3.15764 13.9316 3.03168 14.227 3.03168 14.5536C3.03168 14.8803 3.15766 15.1757 3.36072 15.3876L3.36072 15.5655C3.33067 15.6467 3.28964 15.7582 3.24111 15.8917C3.1371 16.1778 2.998 16.5665 2.85852 16.9749C2.71965 17.3815 2.57755 17.8159 2.4692 18.1908C2.41516 18.3778 2.36688 18.559 2.3314 18.7195C2.29991 18.862 2.26386 19.0504 2.26386 19.225C2.26386 19.8705 2.67025 20.2693 3.01983 20.4631C3.36512 20.6546 3.76999 20.7266 4.12852 20.7266C4.48705 20.7266 4.89193 20.6546 5.23722 20.4631C5.58679 20.2693 5.99319 19.8705 5.9932 19.225C5.99321 19.0504 5.95716 18.862 5.92566 18.7196C5.89018 18.559 5.8419 18.3778 5.78787 18.1908C5.67951 17.8159 5.53741 17.3815 5.39855 16.9749C5.25907 16.5665 5.11996 16.1778 5.01595 15.8917C4.96741 15.7582 4.92638 15.6467 4.89633 15.5654L4.89633 15.3876C5.09941 15.1757 5.22541 14.8803 5.22541 14.5536C5.22541 14.2269 5.09939 13.9315 4.89628 13.7196L4.90418 13.4354C4.94614 13.3784 5.02108 13.3039 5.12707 13.2222C5.22883 13.1438 5.33516 13.0771 5.41863 13.0291C5.45947 13.0057 5.55404 12.957 5.55404 12.957L5.93398 12.7547L12.154 14.8017C13.3568 15.1975 14.6438 15.1975 15.8466 14.8017L25.8727 11.4928C25.9058 11.4769 25.9471 11.4553 25.994 11.4271C26.0867 11.3714 26.2081 11.2858 26.3305 11.1611C26.5862 10.9007 26.8337 10.4782 26.8337 9.88227C26.8337 9.28638 26.5862 8.86384 26.3305 8.6034C26.2081 8.47874 26.0867 8.3931 25.994 8.33744C25.9471 8.30925 25.9058 8.28765 25.8727 8.27176L25.8291 8.25179L15.8466 4.96288ZM2.75512 9.76726C2.74821 9.77218 2.74026 9.77859 2.73279 9.78613L2.73165 9.78727C2.71904 9.79995 2.7026 9.81646 2.7026 9.88227C2.7026 9.95052 2.71963 9.9676 2.73028 9.9783L2.73173 9.97976C2.73786 9.986 2.7443 9.99136 2.75004 9.99561L12.6075 13.2396C13.5149 13.5382 14.4858 13.5382 15.3932 13.2396L25.2506 9.99561C25.2564 9.99137 25.2628 9.98601 25.2689 9.97978L25.2704 9.97832C25.281 9.96763 25.298 9.95054 25.298 9.88227C25.298 9.81401 25.281 9.79692 25.2704 9.78622L25.2689 9.78477C25.2628 9.77853 25.2564 9.77317 25.2506 9.76893L15.3931 6.52494C14.4858 6.22633 13.5149 6.22633 12.6075 6.52494L10.6784 7.15979L2.75512 9.76726Z" fill="#000"/>
</svg>
