<svg viewBox="0 0 24 24" fill="none" xmlns="http://www.w3.org/2000/svg">
<path fill-rule="evenodd" clip-rule="evenodd" d="M3.4 8V16C3.4 17.9882 5.01178 19.6 7 19.6H17C18.9882 19.6 20.6 17.9882 20.6 16V8C20.6 6.01178 18.9882 4.4 17 4.4H7C5.01178 4.4 3.4 6.01178 3.4 8ZM2 8V16C2 18.7614 4.23858 21 7 21H17C19.7614 21 22 18.7614 22 16V8C22 5.23858 19.7614 3 17 3H7C4.23858 3 2 5.23858 2 8Z" fill="#000"/>
<path fill-rule="evenodd" clip-rule="evenodd" d="M18.3203 8.13918C18.556 8.44563 18.4986 8.88512 18.1922 9.12081L14.2913 12.1211C12.941 13.1596 11.0562 13.142 9.7255 12.0785L6.01488 9.11275C5.71289 8.87138 5.66374 8.4309 5.90511 8.1289C6.14648 7.82691 6.58696 7.77776 6.88895 8.01913L10.5996 10.9848C11.4267 11.6459 12.5984 11.6569 13.4377 11.0113L17.3387 8.01107C17.6451 7.77538 18.0846 7.83274 18.3203 8.13918Z" fill="#000"/>
</svg>
