<svg viewBox="0 0 24 24" fill="none" xmlns="http://www.w3.org/2000/svg">
<path fill-rule="evenodd" clip-rule="evenodd" d="M2 17V7C2 4.23858 4.23858 2 7 2H17C19.7614 2 22 4.23858 22 7V17C22 19.7614 19.7614 22 17 22H7C4.23858 22 2 19.7614 2 17ZM15.094 9.23357C15.3673 9.50694 15.3673 9.95015 15.094 10.2235L13.1537 12.1638L15.0654 14.0755C15.3388 14.3488 15.3388 14.792 15.0654 15.0654C14.792 15.3388 14.3488 15.3388 14.0755 15.0654L12.1638 13.1537L10.2235 15.094C9.95016 15.3673 9.50694 15.3673 9.23357 15.094C8.9602 14.8206 8.96021 14.3774 9.23357 14.104L11.1738 12.1638L9.20503 10.195C8.93166 9.92161 8.93166 9.47839 9.20503 9.20503C9.47839 8.93166 9.92161 8.93166 10.195 9.20503L12.1638 11.1738L14.104 9.23357C14.3774 8.96021 14.8206 8.96021 15.094 9.23357Z" fill="black"/>
</svg>
