<svg viewBox="0 0 24 24" fill="none" xmlns="http://www.w3.org/2000/svg">
<path fill-rule="evenodd" clip-rule="evenodd" d="M17.5 19.6C18.6598 19.6 19.6 18.6598 19.6 17.5C19.6 16.3391 18.6602 15.4 17.5 15.4C16.3398 15.4 15.4 16.3391 15.4 17.5C15.4 18.6598 16.3402 19.6 17.5 19.6ZM17.5 21C19.433 21 21 19.433 21 17.5C21 15.5656 19.433 14 17.5 14C15.567 14 14 15.5656 14 17.5C14 19.433 15.567 21 17.5 21Z" fill="black"/>
<path fill-rule="evenodd" clip-rule="evenodd" d="M3.3 17.5C3.3 17.1134 3.6134 16.8 4 16.8H11C11.3866 16.8 11.7 17.1134 11.7 17.5C11.7 17.8866 11.3866 18.2 11 18.2H4C3.6134 18.2 3.3 17.8866 3.3 17.5Z" fill="black"/>
<path fill-rule="evenodd" clip-rule="evenodd" d="M12.3 6.49999C12.3 6.11339 12.6134 5.79999 13 5.79999H20C20.3866 5.79999 20.7 6.11339 20.7 6.49999C20.7 6.88659 20.3866 7.19999 20 7.19999H13C12.6134 7.19999 12.3 6.88659 12.3 6.49999Z" fill="black"/>
<path fill-rule="evenodd" clip-rule="evenodd" d="M4.4 6.5C4.4 7.66087 5.33982 8.6 6.5 8.6C7.66018 8.6 8.6 7.66087 8.6 6.5C8.6 5.34019 7.65981 4.4 6.5 4.4C5.34019 4.4 4.4 5.34019 4.4 6.5ZM6.5 10C4.56699 10 3 8.43444 3 6.5C3 4.56699 4.56699 3 6.5 3C8.43301 3 10 4.56699 10 6.5C10 8.43444 8.43301 10 6.5 10Z" fill="black"/>
</svg>
