<svg viewBox="0 0 24 24" fill="none" xmlns="http://www.w3.org/2000/svg">
<path d="M23.9692 14.9408L23.8327 14.5215C23.7719 14.2847 23.6988 14.0541 23.607 13.8334L20.6657 4.85989C20.301 3.75117 19.2689 3.00379 18.0967 3.00379H16.7507V4.26668H18.0967C18.7194 4.26668 19.2652 4.66133 19.4587 5.24839L21.4597 11.3545C20.6757 10.8846 19.7577 10.6095 18.7765 10.6095C16.3947 10.6095 14.3877 12.2005 13.7586 14.3698C13.2376 13.9431 12.6756 13.7223 12.0814 13.7223C11.357 13.7223 10.7355 14.0541 10.2591 14.4265C9.64877 12.2288 7.62674 10.6057 5.225 10.6057C4.23383 10.6057 3.30967 10.8868 2.51946 11.3666L4.49436 5.25075C4.6854 4.66001 5.2337 4.26289 5.85645 4.26289H7.32026V3H5.85645C4.67798 3 3.64337 3.74861 3.28363 4.86598L0.370915 13.8802H0.374637C0.13646 14.4771 0 15.1246 0 15.8029C0 18.6666 2.34331 20.9962 5.2237 20.9962C8.03095 20.9962 10.321 18.7824 10.4388 16.0236C10.7341 15.6449 11.3952 14.9851 12.0813 14.9851H12.085C12.5775 14.9851 13.0761 15.3391 13.5612 16.0211C13.6753 18.7836 15.9677 21 18.7763 21C21.6567 21 24 18.6703 24 15.8067C24 15.5156 23.9715 15.232 23.9243 14.9545L23.9692 14.9408ZM5.21894 19.7395C3.03689 19.7395 1.26552 17.9747 1.26552 15.8091C1.26552 13.6397 3.04067 11.8749 5.21894 11.8749C7.40099 11.8749 9.17236 13.6397 9.17236 15.8091C9.17608 17.9747 7.40093 19.7395 5.21894 19.7395ZM18.7728 19.7395C16.5908 19.7395 14.8194 17.9747 14.8194 15.8091C14.8194 13.6397 16.5945 11.8749 18.7728 11.8749C20.4016 11.8749 21.8021 12.8603 22.4087 14.2588L22.6183 14.8964C22.6878 15.1899 22.7299 15.4933 22.7299 15.8054C22.7275 17.9747 20.9549 19.7395 18.7728 19.7395Z" fill="black"/>
</svg>
