<svg viewBox="0 0 20 21" fill="none" xmlns="http://www.w3.org/2000/svg">
<path d="M2.63359 8.04821C2.88609 7.39186 5.41667 7.59662 5.41604 8.30891C5.41541 9.02119 5.41604 9.55584 5.41604 9.55584L5.41614 16.1117C5.41538 16.8355 2.71877 16.768 2.63367 16.1117C2.54857 15.4553 2.3811 8.70455 2.63359 8.04821Z" fill="#000"/>
<path d="M10.0535 3.03375C9.04165 3.29266 9.37895 4.75897 8.70438 5.7941C8.36622 6.31301 7.54073 7.257 6.8015 8.06947C6.66109 8.22379 6.58271 8.42466 6.58271 8.63329V16.063C6.58271 16.4011 6.78641 16.7068 7.10167 16.829C8.14598 17.2339 9.51489 17.6934 10.728 17.8707C13.0888 18.2156 15.4498 17.8707 16.1243 16.8355C16.7988 15.8004 18.1479 10.9699 17.1361 8.8995C16.1243 6.82912 10.3907 9.24455 11.0653 7.51932C11.7398 5.7941 11.7398 5.44902 11.7398 4.75897C11.7398 4.06892 11.0653 2.77483 10.0535 3.03375Z" fill="#000"/>
</svg>
