<svg viewBox="0 0 24 24" fill="none" xmlns="http://www.w3.org/2000/svg">
<path fill-rule="evenodd" clip-rule="evenodd" d="M13.0108 3.8349C12.7406 3.49028 12.4846 3.40254 12.2446 3.46376C12.0649 3.5096 11.935 3.61847 11.777 4.27636C11.7546 4.36945 11.7322 4.47438 11.7078 4.58823C11.588 5.14679 11.4223 5.92011 11.0013 6.56411C10.5458 7.2611 9.48464 8.46663 8.58342 9.45443C8.12363 9.9584 7.69051 10.4217 7.3725 10.7589C7.24502 10.8941 7.13592 11.0091 7.05086 11.0985V18.4324C7.10722 18.4576 7.16879 18.4848 7.23521 18.514C7.61495 18.6806 8.15175 18.9073 8.77776 19.147C10.0403 19.6304 11.6241 20.15 13.0047 20.3512C14.4043 20.555 15.7854 20.5515 16.8949 20.3547C18.0529 20.1493 18.7275 19.7685 18.9724 19.3937C19.1262 19.1585 19.3633 18.6231 19.6142 17.8553C19.8587 17.1072 20.0985 16.1938 20.2752 15.2413C20.4522 14.287 20.5626 13.3106 20.5565 12.432C20.5503 11.5405 20.4241 10.8147 20.1802 10.3173C20.0291 10.0089 19.6638 9.77325 18.9117 9.67056C18.1748 9.56994 17.2736 9.62727 16.3536 9.70771C16.2398 9.71767 16.1244 9.72816 16.0084 9.73871C15.2472 9.80792 14.4577 9.8797 13.8876 9.81956C13.5792 9.78702 13.126 9.7007 12.8176 9.36417C12.4339 8.94541 12.4941 8.42147 12.6461 8.03389C13.0606 6.97684 13.2515 6.38255 13.343 5.96251C13.4297 5.56481 13.4308 5.31202 13.4308 4.89257C13.4308 4.6499 13.2904 4.19137 13.0108 3.8349ZM7.05123 20.0063C7.05118 20.2074 7.05106 20.4226 7.05083 20.6404C7.05045 21.0056 6.87046 21.2851 6.66557 21.4678C6.47327 21.6392 6.24137 21.7454 6.03446 21.8145C5.61682 21.9541 5.1089 22.0053 4.63833 21.9996C4.16495 21.9938 3.6607 21.9293 3.24367 21.7922C3.03709 21.7243 2.81443 21.6265 2.62471 21.4804C2.43519 21.3344 2.21785 21.0904 2.17133 20.7327C2.13878 20.4824 2.10591 19.5822 2.07719 18.435C2.04775 17.2592 2.02169 15.7605 2.00871 14.2619C1.99574 12.7643 1.9958 11.2618 2.01886 10.0803C2.03037 9.49048 2.04774 8.97356 2.07271 8.5745C2.08516 8.37561 2.09998 8.19783 2.11812 8.0511C2.13339 7.92761 2.15845 7.7551 2.21368 7.61197C2.32453 7.32468 2.53448 7.13048 2.72027 7.00484C2.9102 6.8764 3.12634 6.78425 3.3359 6.71695C3.75562 6.58214 4.24873 6.51544 4.71152 6.50665C5.16926 6.49796 5.65952 6.5447 6.06312 6.67898C6.26319 6.74555 6.48918 6.84896 6.67701 7.01808C6.87804 7.19909 7.05086 7.47408 7.05086 7.83014V8.98916C7.20055 8.8274 7.35727 8.65702 7.51717 8.48176C8.44135 7.46879 9.41423 6.35435 9.79318 5.77456C10.0535 5.37635 10.1523 4.92866 10.2725 4.38392C10.3037 4.24257 10.3363 4.0947 10.3736 3.93946C10.5285 3.294 10.8158 2.33887 11.8878 2.06536C12.8996 1.80722 13.6867 2.3579 14.1466 2.94433C14.5972 3.5189 14.874 4.28404 14.8741 4.89251V4.90414C14.8741 5.33115 14.8741 5.71484 14.7532 6.26971C14.6426 6.77749 14.4345 7.41459 14.0578 8.38622C14.4745 8.42663 15.0899 8.37157 15.8715 8.30163C15.9867 8.29133 16.1056 8.28069 16.2279 8.27C17.1334 8.19082 18.1879 8.11514 19.107 8.24063C20.0108 8.36405 21.0015 8.71361 21.4762 9.68212C21.8583 10.4615 21.9929 11.4382 21.9997 12.422C22.0067 13.4187 21.8823 14.4905 21.6943 15.5045C21.5058 16.5204 21.2502 17.4956 20.9861 18.3035C20.7286 19.0918 20.4441 19.78 20.1806 20.1832C19.5911 21.0852 18.3881 21.5555 17.147 21.7757C15.8573 22.0044 14.3178 22.0009 12.7967 21.7793C11.2566 21.5549 9.55466 20.9898 8.26167 20.4948C7.80427 20.3196 7.39283 20.1512 7.05123 20.0063ZM5.60756 10.8092V8.04841C5.41455 7.98419 5.1027 7.94269 4.73893 7.9496C4.3802 7.95641 4.03226 8.00912 3.77727 8.09101C3.67377 8.12425 3.60186 8.15716 3.55647 8.1832C3.55462 8.19621 3.55262 8.21114 3.55052 8.22815C3.53742 8.33407 3.52477 8.47962 3.51319 8.66464C3.49011 9.0334 3.47324 9.52661 3.46188 10.1085C3.4392 11.2703 3.43904 12.7575 3.45196 14.2494C3.46487 15.7405 3.4908 17.2313 3.52003 18.3989C3.54407 19.3587 3.56974 20.0616 3.58933 20.3816C3.61678 20.3936 3.65148 20.4071 3.69449 20.4212C3.93261 20.4995 4.28217 20.5519 4.65606 20.5565C5.03278 20.5611 5.36561 20.5164 5.57702 20.4457C5.58806 20.442 5.59828 20.4384 5.60772 20.435C5.608 20.062 5.60799 19.7076 5.6079 19.4331L5.60756 18.897L5.60756 10.8092Z" fill="black"/>
</svg>
