<svg viewBox="0 0 24 24" fill="none" xmlns="http://www.w3.org/2000/svg">
<path fill-rule="evenodd" clip-rule="evenodd" d="M20.5 10.4338C20.5159 5.79174 16.7233 2.01582 12.0289 2.00005C7.33444 1.98427 3.51595 5.73463 3.5 10.3767V10.4052C3.57767 12.641 4.35833 14.7971 5.73329 16.5735C7.27597 18.6106 9.16911 20.3635 11.3261 21.7518C11.713 22.0827 12.2869 22.0827 12.6738 21.7518C14.1207 20.8281 15.4548 19.7421 16.6495 18.5154C18.7384 16.3355 20.4422 13.5465 20.5 10.529V10.4338ZM19.1 10.515V10.429C19.1132 6.57493 15.9602 3.41326 12.0242 3.40004C8.08883 3.38682 4.91449 6.52611 4.9 10.3792C4.97206 12.3119 5.64914 14.1775 6.8404 15.7166L6.84938 15.7283C8.27267 17.6078 10.0154 19.2294 12.0003 20.5205C13.3244 19.6668 14.5462 18.6678 15.6425 17.5427C17.6121 15.4861 19.0472 13.0242 19.1 10.515Z" fill="#000"/>
<path fill-rule="evenodd" clip-rule="evenodd" d="M12.0156 12.7C13.0649 12.7 13.9156 11.8493 13.9156 10.8C13.9156 9.75066 13.0649 8.9 12.0156 8.9C10.9662 8.9 10.1156 9.75066 10.1156 10.8C10.1156 11.8493 10.9662 12.7 12.0156 12.7ZM12.0156 14.1C13.8381 14.1 15.3156 12.6225 15.3156 10.8C15.3156 8.97746 13.8381 7.5 12.0156 7.5C10.193 7.5 8.71558 8.97746 8.71558 10.8C8.71558 12.6225 10.193 14.1 12.0156 14.1Z" fill="#000"/>
</svg>
