<svg viewBox="0 0 24 24" fill="none" xmlns="http://www.w3.org/2000/svg">
<path fill-rule="evenodd" clip-rule="evenodd" d="M10.6342 3.79117C9.58649 3.95105 8.5751 4.31871 7.65884 4.87802C6.39564 5.6491 5.36005 6.75593 4.66392 8.08173C3.96775 9.40762 3.63768 10.902 3.70977 12.4052C3.78185 13.9085 4.25332 15.3626 5.0727 16.6126C5.89203 17.8625 7.02809 18.8609 8.35851 19.5027C9.68881 20.1445 11.1644 20.4062 12.6282 20.2606C14.092 20.1151 15.4908 19.5675 16.675 18.675C17.4433 18.0961 18.1027 17.3859 18.6259 16.5793C17.3479 16.8067 16.026 16.7186 14.7744 16.3108C12.9759 15.7249 11.4389 14.5167 10.4283 12.8995C9.41788 11.2826 8.99661 9.35789 9.23595 7.45947C9.40333 6.13183 9.88662 4.87417 10.6342 3.79117ZM11.9419 2.3078C11.9071 2.3025 11.8718 2.2998 11.8361 2.2998C10.1069 2.30023 8.41094 2.7787 6.92941 3.68306C5.44799 4.58735 4.23706 5.88314 3.42439 7.4309C2.61177 8.97858 2.22738 10.7209 2.31137 12.4723C2.39536 14.2237 2.94466 15.92 3.90184 17.3802C4.85908 18.8405 6.18874 20.0104 7.7502 20.7637C9.31176 21.517 11.0457 21.8249 12.7667 21.6538C14.4877 21.4826 16.1297 20.8391 17.5176 19.7931C18.9054 18.7472 19.9869 17.3385 20.6481 15.7183C20.7548 15.457 20.6941 15.1572 20.4941 14.9579C20.2942 14.7587 19.9942 14.6991 19.7332 14.8067C18.2907 15.4014 16.6899 15.4625 15.2081 14.9797C13.726 14.4968 12.4541 13.4994 11.6156 12.1576C10.7768 10.8155 10.4257 9.21491 10.625 7.63458C10.8242 6.05433 11.5607 4.59747 12.7034 3.51627C12.9116 3.31926 12.9786 3.01521 12.8726 2.74889C12.7666 2.48257 12.5089 2.3078 12.2223 2.3078H11.9419Z" fill="black"/>
</svg>
