<svg viewBox="0 0 24 24" fill="none" xmlns="http://www.w3.org/2000/svg">
<path d="M10 18.3333L10 19.6667C10 19.6667 10 21 11.3333 21L12.6667 21C14 21 14 19.6667 14 19.6667L14 18.3333C14 18.3333 14 17 12.6667 17L11.3333 17C10 17 10 18.3333 10 18.3333Z" fill="#000"/>
<path d="M10 11.3333L10 12.6667C10 12.6667 10 14 11.3333 14L12.6667 14C14 14 14 12.6667 14 12.6667L14 11.3333C14 11.3333 14 10 12.6667 10L11.3333 10C10 10 10 11.3333 10 11.3333Z" fill="#000"/>
<path d="M10 4.33333L10 5.66667C10 5.66667 10 7 11.3333 7L12.6667 7C14 7 14 5.66667 14 5.66667L14 4.33333C14 4.33333 14 3 12.6667 3L11.3333 3C10 3 10 4.33333 10 4.33333Z" fill="#000"/>
</svg>
