<svg viewBox="0 0 24 24" fill="none" xmlns="http://www.w3.org/2000/svg">
<path fill-rule="evenodd" clip-rule="evenodd" d="M20.4001 14.3173C20.4001 12.9297 19.9955 12.2428 19.5702 11.5207C19.0991 10.721 18.6026 9.87813 18.6026 7.99222C18.6026 5.18921 15.9977 2 12.0001 2C8.00246 2 5.39755 5.18921 5.39755 7.99222C5.39755 9.87813 4.9011 10.721 4.43001 11.5207C4.00472 12.2428 3.6001 12.9297 3.6001 14.3173C3.85007 17.2551 6.4282 17.9732 12.0001 17.9732C17.573 17.9732 20.1511 17.244 20.4001 14.3173ZM4.98398 14.2547C5.03365 14.7447 5.16671 15.0505 5.32937 15.2653C5.50214 15.4934 5.79011 15.7263 6.3078 15.9326C7.41083 16.3721 9.20783 16.5621 12.0001 16.5621C14.7914 16.5621 16.589 16.3695 17.692 15.9289C18.2102 15.7219 18.4987 15.4884 18.6717 15.2602C18.8343 15.0456 18.9668 14.7411 19.0162 14.2547C19.0102 13.7189 18.927 13.3708 18.8269 13.1035C18.7212 12.8215 18.5874 12.5937 18.3767 12.2349C18.3564 12.2004 18.3354 12.1646 18.3137 12.1274C18.0762 11.722 17.785 11.2063 17.5668 10.5164C17.3477 9.82389 17.2191 9.01405 17.2191 7.99222C17.2191 5.99837 15.2632 3.41109 12.0001 3.41109C8.73697 3.41109 6.78108 5.99837 6.78108 7.99222C6.78108 9.01405 6.65245 9.82389 6.43339 10.5164C6.21516 11.2063 5.924 11.722 5.68653 12.1274C5.66476 12.1646 5.64376 12.2003 5.62346 12.2349C5.41275 12.5937 5.27899 12.8215 5.17332 13.1035C5.07317 13.3708 4.99 13.7189 4.98398 14.2547Z" fill="#000"/>
<path fill-rule="evenodd" clip-rule="evenodd" d="M9.08645 19.6178C9.37063 19.3574 9.80801 19.3812 10.0634 19.6711C11.1468 20.9009 12.7708 20.889 13.8468 19.6705C14.1025 19.3809 14.5399 19.3576 14.8238 19.6183C15.1077 19.8791 15.1306 20.3252 14.8749 20.6148C13.2547 22.4496 10.6728 22.474 9.03425 20.6142C8.7789 20.3243 8.80227 19.8782 9.08645 19.6178Z" fill="#000"/>
</svg>
