<svg viewBox="0 0 24 24" fill="none" xmlns="http://www.w3.org/2000/svg">
<path d="M11.9997 12.4693C9.02443 12.4693 6.59009 10.035 6.59009 7.05967C6.59009 4.08436 9.02443 1.65002 11.9997 1.65002C14.975 1.65002 17.4094 4.08436 17.4094 7.05967C17.4094 10.035 14.975 12.4693 11.9997 12.4693ZM11.9997 4.2196C10.4445 4.2196 9.15967 5.50439 9.15967 7.05967C9.15967 8.61494 10.4445 9.89973 11.9997 9.89973C13.555 9.89973 14.8398 8.61494 14.8398 7.05967C14.8398 5.50439 13.555 4.2196 11.9997 4.2196Z" fill="#000"/>
<path d="M17.8153 13.0102C17.3419 12.4016 16.5305 12.334 15.9219 12.7397C15.9219 12.7397 14.4342 13.8216 11.9999 13.8216C9.56556 13.8216 8.07791 12.7397 8.07791 12.7397C7.46933 12.2664 6.65788 12.4016 6.18454 13.0102C5.7112 13.6188 5.84644 14.4302 6.45502 14.9036C6.52264 14.9712 7.94267 16.0531 10.3094 16.3912L6.7255 20.0427C6.18454 20.5837 6.18454 21.4628 6.7255 21.9361C6.99599 22.2066 7.33409 22.3418 7.67219 22.3418C8.01029 22.3418 8.3484 22.2066 8.61888 21.9361L11.9999 18.4875L15.3809 21.9361C15.6514 22.2066 15.9895 22.3418 16.3276 22.3418C16.6657 22.3418 17.0038 22.2066 17.2743 21.9361C17.8153 21.3951 17.8153 20.5837 17.2743 20.0427L13.6904 16.3912C16.0571 15.9855 17.4772 14.9036 17.5448 14.9036C18.1534 14.4302 18.2886 13.5512 17.8153 13.0102Z" fill="#000"/>
</svg>
