<svg viewBox="0 0 24 24" fill="none" xmlns="http://www.w3.org/2000/svg">
<path fill-rule="evenodd" clip-rule="evenodd" d="M17.4451 4.75247C15.7258 3.50656 13.2873 3.84265 11.9976 5.50292L4.97536 14.5421C3.90355 15.9225 3.89187 17.4541 4.11571 18.5783C4.22812 19.1429 4.40269 19.6232 4.5487 19.9624C4.62203 20.1327 4.68904 20.2696 4.73899 20.3659C4.76235 20.411 4.80634 20.49 4.82449 20.5225L4.82792 20.5287C4.92881 20.6989 5.10582 20.8227 5.30365 20.8666C5.33526 20.8728 5.42909 20.8912 5.48421 20.9004C5.59433 20.9189 5.74961 20.9415 5.94004 20.9605C6.31922 20.9984 6.84679 21.023 7.43973 20.9676C8.61784 20.8575 10.1384 20.4208 11.1985 19.0554C12.0904 17.9078 13.846 15.648 15.3785 13.6751L18.2208 10.0163C19.5103 8.35627 19.1636 5.99879 17.4451 4.75247ZM17.0563 9.17179C17.8634 8.13268 17.6462 6.65734 16.5713 5.8778C15.495 5.09802 13.9691 5.30864 13.1621 6.34744L12.2388 7.52974L16.1361 10.3563L17.0563 9.17179ZM6.14006 15.3863C5.40336 16.3352 5.36609 17.4114 5.54551 18.3125C5.63472 18.7606 5.77483 19.1474 5.89308 19.4221C5.91213 19.4664 5.93052 19.5075 5.94792 19.5453C5.99156 19.5507 6.03899 19.5561 6.08987 19.5612C6.39899 19.5921 6.82628 19.6115 7.29961 19.5672C8.25398 19.4781 9.31154 19.1415 10.034 18.211C10.9257 17.0634 12.6815 14.8035 14.2141 12.8306L15.262 11.4815L11.3678 8.65713L6.14006 15.3863Z" fill="black"/>
</svg>
