<svg viewBox="0 0 24 24" fill="none" xmlns="http://www.w3.org/2000/svg">
<path fill-rule="evenodd" clip-rule="evenodd" d="M13.969 15.2512C12.942 14.9996 11.9068 14.3514 10.7797 13.2247C9.65258 12.0979 9.00411 11.0628 8.75201 10.0359C8.4929 8.98042 8.69941 8.11718 8.90511 7.48026C8.94931 7.34341 8.99603 7.20969 9.0363 7.09445C9.04097 7.08107 9.04556 7.06794 9.05005 7.05509C9.0955 6.92485 9.13222 6.81804 9.16332 6.71694C9.22575 6.51403 9.24616 6.39307 9.24836 6.30668L9.24846 6.30293C9.25054 6.22651 9.25641 6.0116 8.80268 5.558C8.47602 5.23143 8.18309 4.92313 7.9243 4.65076L7.91774 4.64385C7.65198 4.36414 7.43067 4.13154 7.22572 3.93116C6.79092 3.50605 6.57645 3.37919 6.46524 3.34221L6.46215 3.34096C6.443 3.33276 6.36476 3.29923 6.09274 3.43838C5.74971 3.61385 5.2443 3.99648 4.48478 4.7531C4.42676 4.81688 4.36999 4.87194 4.3471 4.89415C4.34408 4.89708 4.34165 4.89943 4.33988 4.90116L4.33757 4.90343C4.28729 4.95269 4.2398 4.99922 4.18649 5.05488C4.08074 5.16531 3.95843 5.30565 3.83945 5.482C3.60686 5.82674 3.36979 6.3331 3.3357 7.05562C3.26705 8.51083 4.01838 11.2428 8.39045 15.6136C12.762 19.9838 15.4934 20.7336 16.948 20.6642C17.6702 20.6298 18.1763 20.3925 18.521 20.1597C18.6973 20.0406 18.8376 19.9182 18.948 19.8123C19.0036 19.7591 19.05 19.7117 19.0991 19.6615L19.1018 19.6588C19.1036 19.657 19.1059 19.6546 19.1088 19.6516C19.131 19.6287 19.1862 19.5717 19.2503 19.5135C20.0047 18.7563 20.3863 18.2521 20.5615 17.9095C20.7004 17.6378 20.6675 17.5585 20.6589 17.538L20.6576 17.5346C20.6206 17.4227 20.4938 17.2076 20.0699 16.7729C19.87 16.568 19.6377 16.3465 19.3585 16.0809L19.3413 16.0646C19.072 15.8084 18.7676 15.5189 18.4455 15.1968C17.992 14.7437 17.7775 14.7498 17.7014 14.752L17.6976 14.7521C17.6113 14.7544 17.4905 14.7748 17.2876 14.8375C17.1866 14.8687 17.0798 14.9055 16.9496 14.951C16.9368 14.9555 16.9238 14.9601 16.9105 14.9647C16.7952 15.0051 16.6615 15.052 16.5246 15.0963C15.8879 15.3026 15.0247 15.5098 13.969 15.2512ZM19.3867 14.255C18.2244 13.0936 17.3942 13.3845 16.4707 13.708C15.3131 14.1135 14.0091 14.5704 11.7211 12.283C9.43323 9.99585 9.88896 8.69117 10.2935 7.53312C10.6162 6.60906 10.9064 5.77837 9.74407 4.61636C9.42956 4.30195 9.14651 4.00405 8.88578 3.72963C7.05326 1.80095 6.32266 1.032 3.51529 3.83952C3.49441 3.86548 3.45518 3.90391 3.40249 3.95553C2.6422 4.70026 -0.919513 8.1891 7.44906 16.5552C15.8153 24.919 19.3021 21.3575 20.0474 20.5962C20.0992 20.5434 20.1377 20.504 20.1637 20.4831C22.9696 17.678 22.1981 16.9442 20.2624 15.1031C19.9911 14.845 19.697 14.5653 19.3867 14.255Z" fill="#000"/>
<path fill-rule="evenodd" clip-rule="evenodd" d="M13.7889 6.00747C13.859 5.64654 14.2084 5.41078 14.5693 5.48089C16.5204 5.85986 18.0447 7.38558 18.4246 9.33583C18.4949 9.69672 18.2593 10.0463 17.8984 10.1166C17.5375 10.1869 17.188 9.95132 17.1177 9.59042C16.8413 8.17201 15.7331 7.0633 14.3154 6.78794C13.9545 6.71783 13.7187 6.36841 13.7889 6.00747Z" fill="#000"/>
</svg>
