<svg viewBox="0 0 24 24" fill="none" xmlns="http://www.w3.org/2000/svg">
<path fill-rule="evenodd" clip-rule="evenodd" d="M12 20.6C16.7496 20.6 20.6 16.7496 20.6 12C20.6 7.25035 16.7496 3.4 12 3.4C7.25035 3.4 3.4 7.25035 3.4 12C3.4 16.7496 7.25035 20.6 12 20.6ZM12 22C17.5228 22 22 17.5228 22 12C22 6.47715 17.5228 2 12 2C6.47715 2 2 6.47715 2 12C2 17.5228 6.47715 22 12 22Z" fill="black"/>
<path fill-rule="evenodd" clip-rule="evenodd" d="M14.7027 12.2116C14.2857 11.8577 13.6441 11.3973 12.9241 10.942C12.1873 10.4761 11.4812 10.0869 10.9885 9.86443C10.9129 10.4452 10.8675 11.2968 10.8685 12.2111L10.8685 12.2143C10.8675 13.1167 10.9125 13.9693 10.9881 14.5586C11.5109 14.3227 12.2566 13.9079 13.0137 13.4245C13.7016 12.9853 14.3059 12.5487 14.7027 12.2116ZM9.64915 15.0706C9.52915 14.376 9.46726 13.2973 9.46852 12.2126C9.46726 11.0745 9.5342 9.94459 9.66809 9.25716C9.70346 9.07163 9.80703 8.64466 9.83734 8.57568C9.89418 8.44723 9.99776 8.34614 10.1228 8.28311C10.2188 8.23435 10.3287 8.20818 10.4386 8.21175C10.551 8.21413 11.0082 8.36517 11.1648 8.42345C12.4001 8.87539 15.0134 10.5143 15.9734 11.4776C15.9954 11.4998 16.0272 11.5316 16.063 11.5674C16.1672 11.6716 16.3055 11.8097 16.3346 11.8451C16.4243 11.9522 16.4685 12.0818 16.4685 12.2126C16.4685 12.3339 16.4293 12.4576 16.3485 12.5611C16.3136 12.6059 16.1389 12.7799 16.0362 12.8821C16.0162 12.902 15.999 12.9192 15.986 12.9322C15.0652 13.867 12.5593 15.4488 11.2773 15.9566C11.0726 16.0375 10.551 16.2088 10.4386 16.2111C10.1998 16.2183 9.96997 16.0922 9.85882 15.89C9.81587 15.8115 9.68956 15.2989 9.64915 15.0706ZM15.2887 12.7753C15.2916 12.7786 15.2917 12.7785 15.2887 12.7753V12.7753ZM10.3948 9.61106L10.3975 9.61114C10.4012 9.61125 10.4051 9.61135 10.409 9.61143L10.3948 9.61106Z" fill="black"/>
</svg>
