<svg viewBox="0 0 24 24" fill="none" xmlns="http://www.w3.org/2000/svg">
<path fill-rule="evenodd" clip-rule="evenodd" d="M3.4 7V17C3.4 18.9882 5.01178 20.6 7 20.6H17C18.9882 20.6 20.6 18.9882 20.6 17V7C20.6 5.01178 18.9882 3.4 17 3.4H7C5.01178 3.4 3.4 5.01178 3.4 7ZM2 7V17C2 19.7614 4.23858 22 7 22H17C19.7614 22 22 19.7614 22 17V7C22 4.23858 19.7614 2 17 2H7C4.23858 2 2 4.23858 2 7Z" fill="black"/>
<path fill-rule="evenodd" clip-rule="evenodd" d="M12 7.29999C12.3866 7.29999 12.7 7.61339 12.7 7.99999V11.05H15.706C16.0926 11.05 16.406 11.3634 16.406 11.75C16.406 12.1366 16.0926 12.45 15.706 12.45H12.7V15.5C12.7 15.8866 12.3866 16.2 12 16.2C11.6134 16.2 11.3 15.8866 11.3 15.5V12.45H8.20604C7.81944 12.45 7.50604 12.1366 7.50604 11.75C7.50604 11.3634 7.81944 11.05 8.20604 11.05H11.3V7.99999C11.3 7.61339 11.6134 7.29999 12 7.29999Z" fill="black"/>
</svg>
