<svg viewBox="0 0 24 24" fill="none" xmlns="http://www.w3.org/2000/svg">
<path fill-rule="evenodd" clip-rule="evenodd" d="M12 20.6C16.7496 20.6 20.6 16.7496 20.6 12C20.6 7.25035 16.7496 3.4 12 3.4C7.25035 3.4 3.4 7.25035 3.4 12C3.4 16.7496 7.25035 20.6 12 20.6ZM12 22C17.5228 22 22 17.5228 22 12C22 6.47715 17.5228 2 12 2C6.47715 2 2 6.47715 2 12C2 17.5228 6.47715 22 12 22Z" fill="black"/>
<path d="M10.9556 14.1099V13.6411C10.9556 13.104 11.0532 12.6572 11.2485 12.3008C11.4439 11.9443 11.7856 11.5757 12.2739 11.1948C12.855 10.7358 13.2285 10.3794 13.3945 10.1255C13.5654 9.87159 13.6509 9.56885 13.6509 9.21729C13.6509 8.80713 13.5142 8.49219 13.2407 8.27246C12.9673 8.05274 12.5742 7.94287 12.0615 7.94287C11.5977 7.94287 11.168 8.00879 10.7725 8.14063C10.377 8.27246 9.99121 8.43116 9.61523 8.6167L9 7.32764C9.99121 6.77588 11.0532 6.5 12.186 6.5C13.1431 6.5 13.9023 6.73438 14.4639 7.20312C15.0254 7.67188 15.3062 8.31885 15.3062 9.14405C15.3062 9.51026 15.2524 9.83741 15.145 10.1255C15.0376 10.4087 14.874 10.6797 14.6543 10.9385C14.4395 11.1973 14.0659 11.5342 13.5337 11.9492C13.0796 12.3057 12.7744 12.6011 12.6182 12.8354C12.4668 13.0698 12.3911 13.3848 12.3911 13.7803V14.1099H10.9556ZM10.6553 16.4463C10.6553 15.709 11.0142 15.3403 11.7319 15.3403C12.0835 15.3403 12.3521 15.438 12.5376 15.6333C12.7231 15.8237 12.8159 16.0947 12.8159 16.4463C12.8159 16.793 12.7207 17.0688 12.5303 17.2739C12.3447 17.4741 12.0786 17.5742 11.7319 17.5742C11.3853 17.5742 11.1191 17.4765 10.9336 17.2812C10.748 17.081 10.6553 16.8027 10.6553 16.4463Z" fill="black"/>
</svg>
