<svg viewBox="0 0 24 24" fill="none" xmlns="http://www.w3.org/2000/svg">
<path fill-rule="evenodd" clip-rule="evenodd" d="M9.89741 3.6823C5.33222 4.82635 2.55412 9.47357 3.69235 14.0621C4.83058 18.6507 9.45412 21.443 14.0193 20.299C16.7853 19.6058 18.8956 17.6272 19.8764 15.1516C20.0233 14.7811 20.4411 14.6003 20.8098 14.7479C21.1784 14.8954 21.3582 15.3154 21.2114 15.6859C20.0668 18.5749 17.6007 20.89 14.3669 21.7004C9.03171 23.0374 3.62831 19.7741 2.29809 14.4115C0.967866 9.049 4.21456 3.61792 9.54978 2.28089C14.2157 1.11159 18.9499 3.69968 20.7431 8.06146L21.6152 5.89241C21.7639 5.52263 22.1826 5.34401 22.5505 5.49345C22.9184 5.64289 23.0961 6.0638 22.9475 6.43358L21.2996 10.5319C21.2235 10.7212 21.0713 10.8692 20.8806 10.9394C20.6898 11.0096 20.4784 10.9954 20.2987 10.9003L16.2664 8.76592C15.9153 8.58008 15.7806 8.14336 15.9655 7.79046C16.1504 7.43757 16.5849 7.30215 16.936 7.48799L19.5081 8.84946C18.0526 4.97822 13.9242 2.67316 9.89741 3.6823Z" fill="black"/>
</svg>
