<svg viewBox="0 0 24 24" xmlns="http://www.w3.org/2000/svg">
<path fill-rule="evenodd" clip-rule="evenodd" d="M11.7731 1.5C17.1707 1.5 21.5463 5.93661 21.5463 11.4094C21.5463 14.0818 20.503 16.507 18.807 18.2893L21.799 21.3152C22.0665 21.5857 22.0671 22.025 21.8003 22.2962C21.5334 22.5674 21.1003 22.568 20.8328 22.2975L17.7892 19.2195C16.1305 20.5349 14.0421 21.3189 11.7731 21.3189C6.37558 21.3189 2 16.8823 2 11.4094C2 5.93661 6.37558 1.5 11.7731 1.5ZM11.7731 19.9316C16.415 19.9316 20.178 16.1161 20.178 11.4094C20.178 6.7028 16.415 2.88732 11.7731 2.88732C7.13124 2.88732 3.36824 6.7028 3.36824 11.4094C3.36824 16.1161 7.13124 19.9316 11.7731 19.9316Z" fill="#000"/>
</svg>
