<svg viewBox="0 0 20 21" fill="none" xmlns="http://www.w3.org/2000/svg">
<path fill-rule="evenodd" clip-rule="evenodd" d="M10.103 12.4427C11.0145 12.4427 11.7534 11.7208 11.7534 10.8303C11.7534 9.93982 11.0145 9.21794 10.103 9.21794C9.19149 9.21794 8.45257 9.93982 8.45257 10.8303C8.45257 11.7208 9.19149 12.4427 10.103 12.4427ZM10.103 13.6307C11.6861 13.6307 12.9695 12.3769 12.9695 10.8303C12.9695 9.28367 11.6861 8.02989 10.103 8.02989C8.51986 8.02989 7.23648 9.28367 7.23648 10.8303C7.23648 12.3769 8.51986 13.6307 10.103 13.6307Z" fill="#000"/>
<path fill-rule="evenodd" clip-rule="evenodd" d="M10.103 13.6307C11.6861 13.6307 12.9695 12.3769 12.9695 10.8303C12.9695 9.28367 11.6861 8.02989 10.103 8.02989C8.51986 8.02989 7.23648 9.28367 7.23648 10.8303C7.23648 12.3769 8.51986 13.6307 10.103 13.6307ZM10.103 12.4427C11.0145 12.4427 11.7534 11.7208 11.7534 10.8303C11.7534 9.93982 11.0145 9.21794 10.103 9.21794C9.19149 9.21794 8.45257 9.93982 8.45257 10.8303C8.45257 11.7208 9.19149 12.4427 10.103 12.4427Z" fill="#000"/>
<path fill-rule="evenodd" clip-rule="evenodd" d="M12.1714 2.42182C11.7439 1.99215 11.1566 1.74982 10.5432 1.75H9.45393C8.85216 1.74999 8.2752 1.98426 7.8507 2.40095C7.42781 2.81608 7.19097 3.37818 7.19206 3.96368C7.18124 4.52319 6.7146 4.97197 6.14158 4.97355C5.96971 4.97127 5.80149 4.92491 5.65365 4.83919L5.64558 4.83468C4.562 4.2281 3.18092 4.59077 2.5543 5.64504L1.97736 6.57157L1.96999 6.58374C1.34597 7.64176 1.71495 8.99354 2.79537 9.60754L2.79709 9.60851C3.12311 9.79239 3.32394 10.1322 3.32394 10.5C3.32394 10.8678 3.12264 11.2079 2.79662 11.3918C1.71619 12.0024 1.34633 13.3526 1.97018 14.4088L1.97082 14.4099L2.5167 15.3296C2.80979 15.8429 3.29954 16.2216 3.87839 16.3823C4.45928 16.5436 5.08206 16.4722 5.60884 16.1837L5.61792 16.1785C5.85698 16.0422 6.14186 16.0049 6.40923 16.0748C6.6766 16.1447 6.90425 16.3161 7.04169 16.5508L7.04666 16.559C7.13449 16.7036 7.18189 16.8681 7.18413 17.0362C7.18616 18.2592 8.2016 19.25 9.45392 19.25H10.5432C11.7925 19.25 12.807 18.2637 12.813 17.0432L12.813 17.0375C12.8116 16.7648 12.9219 16.5029 13.1193 16.3101C13.3151 16.1189 13.5804 16.0113 13.8571 16.0109C14.0336 16.0166 14.206 16.0642 14.3594 16.1497C15.4409 16.7577 16.8219 16.3987 17.4512 15.3465L18.0217 14.4176L18.0257 14.411C18.3287 13.9028 18.4119 13.2975 18.2568 12.7293C18.1017 12.161 17.7211 11.6766 17.1992 11.3833C16.958 11.2477 16.782 11.0237 16.7103 10.761C16.6386 10.4982 16.677 10.2184 16.8171 9.98344L16.8194 9.97964C16.9097 9.82555 17.0405 9.69781 17.1982 9.60955L17.203 9.60682C18.2564 9.00491 18.6307 7.70046 18.0627 6.65457C18.0525 6.63028 18.0406 6.6066 18.0271 6.58371L17.4865 5.66717C16.8617 4.60782 15.4771 4.24233 14.3913 4.85017L14.385 4.8538C14.1457 4.99151 13.8602 5.03058 13.5914 4.96239C13.3226 4.89421 13.0926 4.72437 12.9521 4.49033L12.9505 4.48764C12.8638 4.34502 12.8165 4.18294 12.8131 4.01723C12.8268 3.4231 12.5957 2.84822 12.1714 2.42182ZM11.2994 3.24993C11.1009 3.05044 10.8282 2.93794 10.5435 2.93805L9.45391 2.93805C9.17569 2.93805 8.90894 3.04636 8.71267 3.23902C8.51641 3.43167 8.40688 3.70418 8.40822 3.97598C8.39041 5.1882 7.37927 6.16173 6.13831 6.1616C5.75308 6.1577 5.36944 6.05492 5.0377 5.86367C4.53412 5.58406 3.89352 5.75403 3.60411 6.24475L3.02049 7.18232C2.73527 7.67266 2.90715 8.29662 3.40685 8.5806C4.10913 8.9767 4.54004 9.70777 4.54004 10.5C4.54004 11.2922 4.10741 12.0243 3.40513 12.4204C2.90612 12.7027 2.73526 13.3265 3.02322 13.8146L3.57739 14.7483C3.71328 14.9878 3.94119 15.1646 4.21085 15.2395C4.47916 15.314 4.75608 15.2156 4.99984 15.0833C5.51791 14.7899 6.14494 14.7759 6.7236 14.9271C7.30273 15.0785 7.79369 15.445 8.09243 15.9526C8.28841 16.2768 8.39619 16.6498 8.40019 17.0264C8.40019 17.5949 8.87198 18.0619 9.45392 18.0619H10.5432C11.1224 18.062 11.5929 17.603 11.5969 17.0375C11.5949 16.449 11.8333 15.8863 12.2594 15.47C12.6862 15.053 13.2793 14.8202 13.883 14.8231C14.2626 14.833 14.6338 14.9345 14.9635 15.1187C15.4663 15.4017 16.1146 15.2284 16.4064 14.7384L16.9749 13.8129C17.1136 13.5785 17.1532 13.297 17.0818 13.0354C17.01 12.7726 16.8341 12.5487 16.5928 12.4131C16.071 12.1198 15.6904 11.6354 15.5352 11.0671C15.3803 10.4995 15.4631 9.89506 15.7652 9.38726C15.9625 9.05159 16.2474 8.77309 16.5909 8.58023C17.088 8.29486 17.2282 7.61344 16.9423 7.124L16.4328 6.26032C16.1432 5.76938 15.5022 5.59943 14.9985 5.87959C14.4817 6.17569 13.8657 6.25943 13.2857 6.11232C12.7049 5.96497 12.2086 5.5995 11.9047 5.094C11.7076 4.76912 11.6012 4.37464 11.5972 3.99701C11.6053 3.71891 11.4979 3.44942 11.2994 3.24993Z" fill="#000"/>
</svg>
