<svg viewBox="0 0 24 24" fill="none" xmlns="http://www.w3.org/2000/svg">
<path fill-rule="evenodd" clip-rule="evenodd" d="M20.1099 10.5543C20.2348 10.4399 20.1698 10.2317 20.002 10.2087L16.0963 9.67294C15.2273 9.55414 14.4387 9.03499 14.018 8.23337L12.177 4.73628C12.102 4.59381 11.898 4.59384 11.8231 4.73632L9.98362 8.2325C9.56219 9.03568 8.77122 9.55434 7.90368 9.67294L3.99799 10.2087C3.83015 10.2317 3.76516 10.4399 3.8901 10.5543L6.64525 13.0771C7.30929 13.6855 7.6364 14.5902 7.47047 15.4992L6.79946 19.1802C6.76997 19.3419 6.93742 19.4682 7.08482 19.3954L10.744 17.5872C11.5328 17.1983 12.4675 17.1974 13.2571 17.5877L16.9163 19.3959C17.0637 19.4688 17.2312 19.3425 17.2016 19.1807L16.5297 15.4999C16.3634 14.5908 16.6902 13.686 17.3544 13.0774L20.1099 10.5543ZM12.6369 18.8428C12.2389 18.646 11.7622 18.646 11.3631 18.8428L7.30334 20.849C6.30026 21.3459 5.1271 20.5445 5.31916 19.4942L6.09316 15.2481C6.16952 14.8305 6.02259 14.4054 5.6998 14.1096L2.4152 11.1021C1.60302 10.3594 2.0496 9.06329 3.17185 8.90889L7.71406 8.28584C8.15948 8.22495 8.54475 7.96181 8.74375 7.58233L10.773 3.71683C11.2752 2.76106 12.7248 2.76106 13.227 3.71683L15.2574 7.58233C15.4564 7.96181 15.8405 8.22495 16.2859 8.28584L20.8281 8.90889C21.9504 9.06329 22.397 10.3594 21.5848 11.1021L18.3002 14.1096C17.9774 14.4054 17.8305 14.8305 17.9068 15.2481L18.682 19.4942C18.8729 20.5445 17.6997 21.3459 16.6967 20.849L12.6369 18.8428Z" fill="black"/>
</svg>
