<svg viewBox="0 0 24 24" fill="none" xmlns="http://www.w3.org/2000/svg">
<path fill-rule="evenodd" clip-rule="evenodd" d="M2 7V17C2 19.7614 4.23858 22 7 22H17C19.7614 22 22 19.7614 22 17V7C22 4.23858 19.7614 2 17 2H7C4.23858 2 2 4.23858 2 7ZM16.315 9.20503C16.5883 9.47839 16.5883 9.92161 16.315 10.195L11.569 14.941C11.2956 15.2143 10.8525 15.2143 10.5791 14.9411L8.20513 12.5681C7.9317 12.2948 7.93161 11.8516 8.20492 11.5781C8.47823 11.3047 8.92145 11.3046 9.19487 11.5779L11.0739 13.4562L15.325 9.20503C15.5984 8.93166 16.0416 8.93166 16.315 9.20503Z" fill="black"/>
</svg>
