<svg viewBox="0 0 24 24" fill="none" xmlns="http://www.w3.org/2000/svg">
<path fill-rule="evenodd" clip-rule="evenodd" d="M12 2.2998C12.3866 2.2998 12.7 2.61321 12.7 2.9998V3.9998C12.7 4.3864 12.3866 4.6998 12 4.6998C11.6134 4.6998 11.3 4.3864 11.3 3.9998V2.9998C11.3 2.61321 11.6134 2.2998 12 2.2998ZM5.10507 5.10483C5.37844 4.83146 5.82166 4.83146 6.09502 5.10483L6.79502 5.80483C7.06839 6.0782 7.06839 6.52141 6.79502 6.79478C6.52166 7.06815 6.07844 7.06815 5.80507 6.79478L5.10507 6.09478C4.83171 5.82141 4.83171 5.3782 5.10507 5.10483ZM18.895 5.10483C19.1684 5.3782 19.1684 5.82141 18.895 6.09478L18.195 6.79478C17.9217 7.06815 17.4784 7.06815 17.2051 6.79478C16.9317 6.52141 16.9317 6.0782 17.2051 5.80483L17.9051 5.10483C18.1784 4.83146 18.6217 4.83146 18.895 5.10483ZM12 8.6998C10.1775 8.6998 8.70005 10.1773 8.70005 11.9998C8.70005 13.8223 10.1775 15.2998 12 15.2998C13.8226 15.2998 15.3 13.8223 15.3 11.9998C15.3 10.1773 13.8226 8.6998 12 8.6998ZM7.30005 11.9998C7.30005 9.40407 9.40431 7.2998 12 7.2998C14.5958 7.2998 16.7 9.40407 16.7 11.9998C16.7 14.5955 14.5958 16.6998 12 16.6998C9.40431 16.6998 7.30005 14.5955 7.30005 11.9998ZM2.30005 11.9998C2.30005 11.6132 2.61345 11.2998 3.00005 11.2998H4.00005C4.38665 11.2998 4.70005 11.6132 4.70005 11.9998C4.70005 12.3864 4.38665 12.6998 4.00005 12.6998H3.00005C2.61345 12.6998 2.30005 12.3864 2.30005 11.9998ZM19.3 11.9998C19.3 11.6132 19.6135 11.2998 20 11.2998H21C21.3866 11.2998 21.7001 11.6132 21.7001 11.9998C21.7001 12.3864 21.3866 12.6998 21 12.6998H20C19.6135 12.6998 19.3 12.3864 19.3 11.9998ZM17.2051 17.2048C17.4784 16.9315 17.9217 16.9315 18.195 17.2048L18.895 17.9048C19.1684 18.1782 19.1684 18.6214 18.895 18.8948C18.6217 19.1681 18.1784 19.1681 17.9051 18.8948L17.2051 18.1948C16.9317 17.9214 16.9317 17.4782 17.2051 17.2048ZM6.79502 17.2048C7.06839 17.4782 7.06839 17.9214 6.79502 18.1948L6.09502 18.8948C5.82166 19.1681 5.37844 19.1681 5.10507 18.8948C4.83171 18.6214 4.83171 18.1782 5.10507 17.9048L5.80507 17.2048C6.07844 16.9315 6.52166 16.9315 6.79502 17.2048ZM12 19.2998C12.3866 19.2998 12.7 19.6132 12.7 19.9998V20.9998C12.7 21.3864 12.3866 21.6998 12 21.6998C11.6134 21.6998 11.3 21.3864 11.3 20.9998V19.9998C11.3 19.6132 11.6134 19.2998 12 19.2998Z" fill="black"/>
</svg>
