<svg viewBox="0 0 24 24" fill="none" xmlns="http://www.w3.org/2000/svg">
<path d="M18.4569 3.40432C18.887 3.22333 19.3579 3.16103 19.8202 3.22366C20.2825 3.2863 20.7195 3.47193 21.0858 3.76077C21.4521 4.04962 21.7345 4.43134 21.9032 4.86624C22.0508 5.24673 22.1072 5.65594 22.0683 6.06057L22.0458 6.2344L20.0644 18.253V18.2539C19.7317 20.2603 17.5126 21.4511 15.6337 20.4307C14.7323 19.941 13.3758 19.177 12.1444 18.3721H12.1435C11.8347 18.17 11.1523 17.7102 10.5644 17.1582C10.2736 16.8853 9.95118 16.5405 9.71475 16.1465C9.52447 15.8294 9.30407 15.3359 9.35244 14.7588C8.92538 15.0035 8.52153 15.1941 8.11123 15.3037C7.58946 15.4432 7.12903 15.4384 6.68447 15.3643V15.3633C5.534 15.1718 4.44272 14.8728 3.52529 14.4922C1.29694 13.5679 1.48068 10.5526 3.51846 9.69436L18.4569 3.40432ZM19.6454 4.51175C19.4135 4.48039 19.1775 4.51186 18.9618 4.60257L4.02236 10.8926C2.98117 11.3312 2.92788 12.8378 4.02334 13.292C4.834 13.6283 5.82738 13.9038 6.89834 14.0821C7.48537 14.1799 7.97623 14.0818 8.91787 13.5088C9.98536 12.8589 13.2144 10.5506 15.2255 9.03225C16.0353 8.42076 16.3486 8.80402 15.663 9.46878C13.9158 11.161 10.8581 14.0072 10.6659 14.7647C10.4423 15.6504 12.2611 16.8953 12.8554 17.2842C14.0434 18.0608 15.3645 18.805 16.2538 19.2881C17.317 19.8656 18.589 19.2003 18.7812 18.041L20.7626 6.02346C20.8006 5.79243 20.7759 5.55525 20.6913 5.33694C20.6066 5.11856 20.4651 4.92631 20.2812 4.78128C20.0973 4.6363 19.8775 4.54319 19.6454 4.51175Z" fill="black"/>
</svg>
