<svg viewBox="0 0 24 24" fill="none" xmlns="http://www.w3.org/2000/svg">
<path fill-rule="evenodd" clip-rule="evenodd" d="M3.4 7V17C3.4 18.9882 5.01178 20.6 7 20.6H17C18.9882 20.6 20.6 18.9882 20.6 17V7C20.6 5.01178 18.9882 3.4 17 3.4H7C5.01178 3.4 3.4 5.01178 3.4 7ZM2 7V17C2 19.7614 4.23858 22 7 22H17C19.7614 22 22 19.7614 22 17V7C22 4.23858 19.7614 2 17 2H7C4.23858 2 2 4.23858 2 7Z" fill="black"/>
<path fill-rule="evenodd" clip-rule="evenodd" d="M7.29999 7.99999C7.29999 7.61339 7.61339 7.29999 7.99999 7.29999H16C16.3866 7.29999 16.7 7.61339 16.7 7.99999C16.7 8.38659 16.3866 8.69999 16 8.69999H12.7V17C12.7 17.3866 12.3866 17.7 12 17.7C11.6134 17.7 11.3 17.3866 11.3 17V8.69999H7.99999C7.61339 8.69999 7.29999 8.38659 7.29999 7.99999Z" fill="black"/>
</svg>
