<svg viewBox="0 0 24 24" fill="none" xmlns="http://www.w3.org/2000/svg">
<path fill-rule="evenodd" clip-rule="evenodd" d="M12 20.6C16.7496 20.6 20.6 16.7496 20.6 12C20.6 7.25035 16.7496 3.4 12 3.4C7.25035 3.4 3.4 7.25035 3.4 12C3.4 16.7496 7.25035 20.6 12 20.6ZM12 22C17.5228 22 22 17.5228 22 12C22 6.47715 17.5228 2 12 2C6.47715 2 2 6.47715 2 12C2 17.5228 6.47715 22 12 22Z" fill="black"/>
<path d="M7.5 9.74C7.5 7.96667 8.46667 7 9.6 7C10.7333 7 10.8933 7.16 12.18 7.80667C13.4667 8.45333 13.7933 8.61333 14.44 8.61333C15.0867 8.61333 15.4067 8.12667 15.4067 7.16H16.5333C16.6933 9.09333 15.5667 9.9 14.4333 9.9C13.3 9.9 12.98 9.74 11.8533 9.09333C10.7267 8.44667 10.4 8.28667 9.75333 8.28667C9.10667 8.28667 8.78667 8.77333 8.62667 9.9L7.5 9.74Z" fill="black"/>
<path d="M12.7933 10.4867V17.42H11.5V10L12.7933 10.4867Z" fill="black"/>
</svg>
