<svg viewBox="0 0 24 24" fill="none" xmlns="http://www.w3.org/2000/svg">
<path fill-rule="evenodd" clip-rule="evenodd" d="M8.29141 8.00423C8.28453 9.98273 9.92576 11.5922 11.9555 11.6H11.989C14.0304 11.6 15.6855 9.98804 15.6855 7.99948C15.6855 6.0113 14.0307 4.4 11.989 4.4C9.94684 4.4 8.29142 6.01168 8.29142 7.99948L8.29141 8.00423ZM11.9528 13C9.12765 12.9907 6.84411 10.7515 6.85368 7.99948C6.85368 5.23811 9.15318 3 11.989 3C14.8248 3 17.1232 5.23811 17.1232 7.99948C17.1232 10.7609 14.8248 13 11.989 13H11.9528Z" fill="black"/>
<path fill-rule="evenodd" clip-rule="evenodd" d="M18.0221 4.88662C18.0863 4.50512 18.4561 4.24661 18.8478 4.30921C20.5912 4.58779 21.9212 6.05934 21.9212 7.83597L21.9212 7.83742C21.9173 9.63989 20.5454 11.1264 18.7637 11.3702C18.3705 11.424 18.007 11.1572 17.9518 10.7744C17.8965 10.3915 18.1705 10.0376 18.5636 9.98378C19.6468 9.83559 20.4807 8.93046 20.4834 7.83527C20.4831 6.75622 19.675 5.86012 18.615 5.69073C18.2232 5.62813 17.9578 5.26811 18.0221 4.88662Z" fill="black"/>
<path fill-rule="evenodd" clip-rule="evenodd" d="M19.2143 14.147C19.273 13.7646 19.6389 13.501 20.0316 13.5582C20.764 13.6648 21.4738 13.8529 22.0177 14.2003C22.5978 14.5708 23 15.136 23 15.9005C23 16.4069 22.8218 16.8485 22.4996 17.2035C22.1907 17.5438 21.7779 17.7743 21.3441 17.9355C20.9732 18.0733 20.5577 17.8923 20.4162 17.5311C20.2746 17.1699 20.4606 16.7653 20.8315 16.6275C21.1351 16.5147 21.3189 16.3903 21.4223 16.2763C21.5125 16.177 21.5623 16.0651 21.5623 15.9005C21.5623 15.69 21.4802 15.5313 21.2292 15.371C20.9421 15.1876 20.474 15.0382 19.819 14.9428C19.4263 14.8856 19.1556 14.5293 19.2143 14.147Z" fill="black"/>
<path fill-rule="evenodd" clip-rule="evenodd" d="M5.92607 4.88662C5.99036 5.26811 5.72488 5.62813 5.3331 5.69073C4.27309 5.86012 3.46506 6.7562 3.4647 7.83524C3.46739 8.93066 4.30046 9.83558 5.38442 9.98377C5.77758 10.0375 6.05156 10.3915 5.99635 10.7743C5.94115 11.1571 5.57768 11.4239 5.18452 11.3702C3.40145 11.1264 2.03079 9.63969 2.02696 7.83742L2.02696 7.83597C2.02696 6.05934 3.35693 4.58779 5.10028 4.30921C5.49206 4.24661 5.86178 4.50512 5.92607 4.88662Z" fill="black"/>
<path fill-rule="evenodd" clip-rule="evenodd" d="M4.78568 13.8965C4.84439 14.2789 4.57367 14.6352 4.18102 14.6923C3.52599 14.7877 3.0579 14.9371 2.77076 15.1205C2.51978 15.2808 2.43774 15.4395 2.43774 15.65C2.43774 15.8146 2.48753 15.9265 2.57766 16.0258C2.68109 16.1398 2.86493 16.2642 3.1685 16.377C3.53943 16.5149 3.72538 16.9194 3.58382 17.2806C3.44227 17.6418 3.02682 17.8229 2.65589 17.685C2.22211 17.5238 1.80929 17.2933 1.5004 16.953C1.1782 16.598 1 16.1564 1 15.65C1 14.8855 1.40218 14.3203 1.98226 13.9498C2.52619 13.6024 3.23601 13.4143 3.96841 13.3077C4.36107 13.2505 4.72697 13.5142 4.78568 13.8965Z" fill="black"/>
<path fill-rule="evenodd" clip-rule="evenodd" d="M6.50632 16.6326C6.35011 16.8253 6.23748 17.0809 6.23748 17.4875C6.23748 17.8964 6.35027 18.1556 6.50748 18.3514C6.68085 18.5673 6.9816 18.7944 7.48333 18.9972C8.52163 19.4167 10.0834 19.6 11.9889 19.6C13.8867 19.6 15.45 19.4223 16.4924 19.0067C16.9963 18.8058 17.2976 18.5805 17.4706 18.367C17.6268 18.1742 17.7394 17.9188 17.7394 17.5125C17.7394 17.1039 17.6267 16.8448 17.4695 16.649C17.2961 16.4331 16.9954 16.2059 16.4938 16.0032C15.4558 15.5836 13.8942 15.4 11.9889 15.4C10.0909 15.4 8.52736 15.5775 7.48472 15.993C6.98074 16.1938 6.67941 16.4191 6.50632 16.6326ZM4.79974 17.4875C4.79974 14.6968 8.11121 14 11.9889 14C15.8876 14 19.1771 14.7229 19.1771 17.5125C19.1771 20.302 15.8666 21 11.9889 21C8.0902 21 4.79974 20.2782 4.79974 17.4875Z" fill="black"/>
</svg>
