<svg viewBox="0 0 24 24" fill="none" xmlns="http://www.w3.org/2000/svg">
<path fill-rule="evenodd" clip-rule="evenodd" d="M7.92932 7.56285C7.92168 9.84057 9.74218 11.6935 11.9938 11.7023H12.0299C14.2938 11.7023 16.1293 9.84688 16.1293 7.55805C16.1293 5.2696 14.2942 3.41492 12.0299 3.41492C9.76521 3.41492 7.92933 5.26998 7.92933 7.55805L7.92932 7.56285ZM11.9911 13.1173C8.96503 13.1069 6.51907 10.6176 6.52933 7.55805C6.52933 4.48816 8.99238 2 12.0299 2C15.0674 2 17.5293 4.48816 17.5293 7.55805C17.5293 10.6279 15.0674 13.1173 12.0299 13.1173H11.9911Z" fill="black"/>
<path fill-rule="evenodd" clip-rule="evenodd" d="M5.68281 17.6572C5.50511 17.8563 5.4 18.0902 5.4 18.4501C5.4 18.8127 5.50562 19.0502 5.68395 19.2519C5.88905 19.4839 6.25243 19.7331 6.85103 19.9527C8.06948 20.3998 9.86625 20.5851 12.0005 20.5851C14.1254 20.5851 15.9235 20.4056 17.1464 19.9629C17.7474 19.7453 18.112 19.4979 18.3173 19.2678C18.495 19.0687 18.6 18.8349 18.6 18.4753C18.6 18.113 18.4945 17.8756 18.3162 17.6739C18.1111 17.4419 17.7478 17.1927 17.1493 16.973C15.9311 16.5258 14.1347 16.3403 12.0005 16.3403C9.87546 16.3403 8.07708 16.5195 6.85397 16.9622C6.25282 17.1797 5.88818 17.4271 5.68281 17.6572ZM4 18.4501C4 15.6296 7.6852 14.9254 12.0005 14.9254C16.3392 14.9254 20 15.656 20 18.4753C20 21.2946 16.3159 22 12.0005 22C7.66182 22 4 21.2705 4 18.4501Z" fill="black"/>
</svg>
