<svg viewBox="0 0 24 24" fill="none" xmlns="http://www.w3.org/2000/svg">
<path fill-rule="evenodd" clip-rule="evenodd" d="M7.16822 10.972C7.16822 10.5745 7.49041 10.2523 7.88785 10.2523H14.0561C14.4535 10.2523 14.7757 10.5745 14.7757 10.972C14.7757 11.3694 14.4535 11.6916 14.0561 11.6916H7.88785C7.49041 11.6916 7.16822 11.3694 7.16822 10.972Z" fill="black"/>
<path fill-rule="evenodd" clip-rule="evenodd" d="M10.972 1C5.4646 1 1 5.4646 1 10.972C1 16.4793 5.4646 20.9439 10.972 20.9439C13.48 20.9439 15.7717 20.0181 17.5241 18.4895C17.5578 18.5572 17.6029 18.6206 17.6594 18.6771L21.7715 22.7892C22.0526 23.0703 22.5082 23.0703 22.7892 22.7892C23.0703 22.5082 23.0703 22.0526 22.7892 21.7715L18.6771 17.6594C18.6206 17.6029 18.5572 17.5578 18.4895 17.5241C20.0181 15.7717 20.9439 13.48 20.9439 10.972C20.9439 5.4646 16.4793 1 10.972 1ZM10.972 2.43925C6.25948 2.43925 2.43925 6.25948 2.43925 10.972C2.43925 15.6844 6.25948 19.5047 10.972 19.5047C15.6844 19.5047 19.5047 15.6844 19.5047 10.972C19.5047 6.25948 15.6844 2.43925 10.972 2.43925Z" fill="black"/>
<path fill-rule="evenodd" clip-rule="evenodd" d="M7.88785 10.2523C7.49041 10.2523 7.16822 10.5745 7.16822 10.972C7.16822 11.3694 7.49041 11.6916 7.88785 11.6916H14.0561C14.4535 11.6916 14.7757 11.3694 14.7757 10.972C14.7757 10.5745 14.4535 10.2523 14.0561 10.2523H7.88785Z" fill="black"/>
</svg>
