<svg width="140" height="38" viewBox="0 0 140 38" fill="none" xmlns="http://www.w3.org/2000/svg">
<g clip-path="url(#clip0_4584_10200)">
<path d="M51.0648 0V37.8176H35.5305H35.2692H35.1386L35.2692 15.4654H19.4736L35.1386 0H51.0648Z" fill="#EA5614"/>
<path d="M18.9188 37.8144H-0.000244141L12.4343 25.3696H31.3533L18.9188 37.8144Z" fill="#2B2C84"/>
<path d="M67.5778 21.5077H68.4923L64.0505 9.83618H63.1361L58.6824 21.5077H59.5969L60.7133 18.5355H66.4614L67.5778 21.5077ZM61.0339 17.7018L63.5873 10.9115L66.1408 17.7018H61.0339ZM77.6252 21.5077L71.6633 15.5028L77.4708 9.83618H76.3069L70.7131 15.2732V9.83618H69.8343V21.5077H70.7013V15.7565L76.4494 21.5077H77.6252ZM87.1025 21.5077H88.017L83.5752 9.83618H82.6608L78.1952 21.5077H79.1097L80.2262 18.5355H85.9862L87.1025 21.5077ZM80.5587 17.7018L83.1121 10.9115L85.6655 17.7018H80.5587ZM97.7318 20.674V9.83618H90.6535V16.4935C90.6535 18.765 90.1072 19.9491 89.4778 20.674H88.5633V23.7429H89.4541V21.5077H98.0763V23.7429H98.967V20.674H97.7318ZM91.5205 16.5057V10.6699H96.8649V20.674H90.4991C91.0573 19.8766 91.5205 18.6442 91.5205 16.5057ZM101.544 20.674V16.0345H106.793V15.2007H101.544V10.6699H107.198V9.83618H100.677V21.5077H107.281V20.674H101.544ZM119.3 9.83618H118.207L114.109 16.7351L110.012 9.83618H108.931V21.5077H109.799V11.1411L114.038 18.3059H114.181L118.432 11.1411V21.5077H119.3V9.83618ZM129.192 21.5077H130.06V9.83618H129.287L122.518 19.8766V9.83618H121.651V21.5077H122.399L129.181 11.4673V21.5077H129.192ZM140 9.83618H135.463C133.599 9.83618 132.09 11.3827 132.09 13.2917C132.09 15.0316 133.372 16.4815 135.024 16.6989L131.758 21.5198H132.743L135.986 16.7351H139.132V21.5077H140V9.83618ZM135.463 15.8894C134.085 15.8894 132.958 14.7174 132.958 13.2917C132.958 11.8419 134.085 10.6699 135.463 10.6699H139.132V15.8894H135.463ZM68.0529 26.1473H59.8582V37.8188H60.7251V26.981H67.1622V37.8188H68.0529V26.1473ZM75.4637 38C77.6133 38 79.4779 36.8643 80.4162 35.1486L79.6442 34.7015C78.896 36.1635 77.2808 37.1542 75.4637 37.1542C72.4471 37.1542 70.3688 34.8586 70.3688 31.9831C70.3688 29.1195 72.4471 26.8118 75.4637 26.8118C77.2689 26.8118 78.8604 27.7784 79.6086 29.2162L80.3805 28.7691C79.4304 27.0655 77.5777 25.9661 75.4637 25.9661C71.9721 25.9661 69.5017 28.6483 69.5017 31.9831C69.4898 35.3178 71.9721 38 75.4637 38ZM86.1168 30.9318H82.8389V26.981H88.5752V26.1473H81.9719V37.8188H86.1168C87.9813 37.8188 89.5134 36.2723 89.5134 34.3632C89.5015 32.4784 87.9813 30.9318 86.1168 30.9318ZM86.1168 36.9851H82.8389V31.7656H86.1168C87.4945 31.7656 88.6227 32.9375 88.6227 34.3632C88.6227 35.8131 87.4945 36.9851 86.1168 36.9851Z" fill="#fff"/>
</g>
<defs>
<clipPath id="clip0_4584_10200">
<rect width="140" height="38" fill="white" transform="translate(-0.000244141)"/>
</clipPath>
</defs>
</svg>
