<svg width="122" height="40" viewBox="0 0 122 40" fill="none" xmlns="http://www.w3.org/2000/svg">
<g clip-path="url(#clip0_5226_14421)">
<mask id="mask0_5226_14421" style="mask-type:luminance" maskUnits="userSpaceOnUse" x="0" y="0" width="122" height="40">
<path d="M122 0H0V39.2258H122V0Z" fill="white"/>
</mask>
<g mask="url(#mask0_5226_14421)">
<path d="M39.7102 14.4248V25.9269C39.7102 33.3608 33.6291 39.4471 26.2018 39.4471H13.7173C6.38463 39.4471 0.366798 33.5189 0.215088 26.2115H18.0979C19.2863 26.2115 20.3735 25.7813 21.189 25.0347L30.4748 15.7408C31.5053 14.7412 32.6368 14.4311 34.1348 14.4311H39.7102V14.4248Z" fill="#F26922"/>
<path d="M0.208862 24.927V13.4251C0.208862 5.99111 6.2899 -0.0952148 13.7173 -0.0952148H26.2081C33.5408 -0.0952148 39.5586 5.83294 39.7103 13.1403H21.8275C20.6391 13.1403 19.5519 13.5705 18.7364 14.3171L9.45052 23.6175C8.42016 24.6171 7.28865 24.927 5.79052 24.927H0.208862Z" fill="#F26922"/>
<path d="M55.7031 13.5326C55.3617 15.8038 54.856 17.531 54.1796 18.7015C53.832 19.2962 53.4337 19.7327 52.9912 20.0175C52.5425 20.2958 52.0177 20.4413 51.4047 20.4413C50.6145 20.4413 50.0266 20.3971 49.6474 20.3148L49.4767 18.3029C49.8559 18.3535 50.4754 18.3788 51.3351 18.3788C51.6511 18.3788 51.923 18.3092 52.1505 18.17C52.3844 18.0309 52.5994 17.7841 52.7953 17.4362C54.0532 15.4875 54.679 11.47 54.679 5.38369V3.4224L51.8281 3.12505V1.88501H66.152V3.12505L63.8448 3.4224V18.8533L66.2974 19.1001V20.3148H58.6614V19.1001L61.2151 18.8281L61.2404 3.42873H56.2088V5.66207C56.2088 8.63564 56.0381 11.2612 55.7031 13.5326Z" fill="#1D1D1E"/>
<path d="M74.6921 6.5542V7.76893L72.6629 8.11691V16.4239L74.1485 14.4626L79.749 8.53447V8.11691L77.916 7.76893V6.5542H84.1107V7.76893L82.3281 8.11691V18.8787L84.1866 19.1001V20.3149H77.7642V19.1001L79.749 18.8787V10.4451L78.1119 12.7291L72.6629 18.4041V18.904L74.3001 19.1001V20.3149H68.2507V19.1001L70.1091 18.8787V8.11691L68.276 7.76893V6.5542H74.6921Z" fill="#1D1D1E"/>
<path d="M98.3458 19.0243C98.7187 19.2078 99.1487 19.2963 99.648 19.2963C100.773 19.2963 101.683 18.8029 102.385 17.8096C103.087 16.8163 103.441 15.3295 103.441 13.3429C103.441 11.4765 103.106 10.0783 102.436 9.1609C101.766 8.24353 100.919 7.78167 99.8946 7.78167C99.4014 7.78167 98.94 7.84494 98.5165 7.9778C98.0929 8.11067 97.7706 8.26884 97.5368 8.44598V18.4675C97.7074 18.6637 97.9729 18.8472 98.3458 19.0243ZM94.2181 7.74371C93.8387 7.56023 93.4089 7.47166 92.9285 7.47166C91.8034 7.47166 90.8931 7.9778 90.1915 8.98375C89.4898 9.9897 89.1358 11.5144 89.1358 13.5454C89.1358 15.3801 89.4709 16.7466 90.1409 17.6388C90.811 18.5308 91.6643 18.9801 92.7074 18.9801C93.1876 18.9801 93.6302 18.9167 94.0474 18.7839C94.4582 18.651 94.7807 18.4928 95.0146 18.3157V8.28782C94.8628 8.10433 94.5973 7.92718 94.2181 7.74371ZM91.6643 20.587C90.7225 20.587 89.8501 20.353 89.0474 19.8784C88.2445 19.4103 87.5997 18.6574 87.1004 17.6324C86.6073 16.6074 86.3545 15.3105 86.3545 13.7415C86.3545 12.3053 86.6199 11.0146 87.1445 9.86949C87.6756 8.73068 88.4279 7.82596 89.4139 7.16798C90.3937 6.51 91.5442 6.17468 92.8463 6.17468C93.2573 6.17468 93.6618 6.23162 94.06 6.33917C94.4582 6.44673 94.7933 6.57326 95.0777 6.72511L95.0018 4.66891V1.79024L92.9981 1.54351V0.474283L96.9614 0.00610352L97.5303 0.379381V4.66891L97.4546 7.37044C98.3142 6.5796 99.4583 6.181 100.9 6.181C101.841 6.181 102.714 6.41509 103.517 6.8896C104.319 7.35778 104.964 8.11067 105.464 9.1356C105.957 10.1605 106.209 11.4575 106.209 13.0265C106.209 14.4628 105.944 15.7534 105.413 16.8985C104.882 18.0374 104.123 18.942 103.131 19.6001C102.139 20.2643 100.988 20.5934 99.6859 20.5934C99.2751 20.5934 98.8705 20.5428 98.4723 20.4415C98.0741 20.3403 97.7516 20.2201 97.5052 20.0682L97.5809 21.9789V24.8322L99.7365 25.1296V26.3696H92.9475V25.1296L95.0018 24.8322V21.9789L95.0777 19.4229C94.275 20.2011 93.1372 20.587 91.6643 20.587Z" fill="#1D1D1E"/>
<path d="M121.798 6.5542L121.95 11.7864H120.313L119.642 8.04099L116.349 7.91444V18.8534L119.718 19.1001V20.3149H110.426V19.1001L113.77 18.8534V7.91444L110.426 8.04099L109.756 11.7864H108.119L108.271 6.5542H121.798Z" fill="#1D1D1E"/>
<path d="M51.9924 35.8535C52.2199 35.8724 52.4222 35.8851 52.5992 35.8851C53.3262 35.8851 53.8382 35.7838 54.1416 35.5877C54.445 35.3915 54.5905 35.0626 54.5905 34.6007C54.5905 34.1642 54.4514 33.8416 54.1732 33.6264C53.8951 33.4113 53.4652 33.3038 52.871 33.3038H51.531V35.7838C51.6067 35.8155 51.7648 35.8345 51.9924 35.8535ZM53.8129 32.3484C54.0531 32.1207 54.1732 31.8233 54.1732 31.4563C54.1732 31.14 54.0594 30.8997 53.8319 30.7415C53.6043 30.577 53.2061 30.5011 52.6372 30.5011H51.5373V32.6964H52.6878C53.1934 32.6964 53.5663 32.5825 53.8129 32.3484ZM51.5498 29.881C52.3084 29.8557 52.7004 29.843 52.7382 29.843C53.7307 29.843 54.4261 29.9696 54.8243 30.229C55.2226 30.4883 55.4185 30.8679 55.4185 31.3741C55.4185 31.7537 55.3047 32.0701 55.0835 32.3295C54.8559 32.5888 54.5399 32.7723 54.1289 32.8926C54.7105 32.9368 55.1657 33.1077 55.4817 33.405C55.7977 33.696 55.9558 34.0504 55.9558 34.4616C55.9558 35.1322 55.6967 35.651 55.1847 36.0117C54.6726 36.3722 53.8319 36.5493 52.6751 36.5493C52.4475 36.5493 52.2325 36.543 52.0303 36.5367C51.828 36.5304 51.6573 36.5177 51.5119 36.5114L50.7029 36.4861H49.4955V35.904L50.3235 35.7648V30.6528L49.5081 30.4883V29.9062H50.8103L51.5498 29.881Z" fill="#1D1D1E"/>
<path d="M64.6474 30.6719C64.4009 30.7732 64.1922 30.887 64.0279 31.0199C63.8572 31.1526 63.7434 31.2792 63.6802 31.3868C63.6802 32.4876 63.7371 33.3734 63.8572 34.044C63.9774 34.7147 64.1544 35.2081 64.4009 35.5182C64.6474 35.8281 64.9634 35.9863 65.3616 35.9863C65.9623 35.9863 66.3858 35.7206 66.6385 35.1892C66.8851 34.6577 67.0116 33.8732 67.0116 32.8293C67.0116 31.9815 66.8914 31.3868 66.6513 31.0388C66.411 30.6908 66.0064 30.52 65.4503 30.52C65.1594 30.5263 64.8939 30.5707 64.6474 30.6719ZM67.6563 27.7805C67.5678 27.8881 67.4287 27.945 67.2327 27.9513C65.7094 28.0653 64.7296 28.2867 64.2934 28.6284C64.0722 28.7928 63.8762 29.0523 63.7118 29.4066C63.5476 29.7608 63.4464 30.229 63.4148 30.8237C63.6613 30.5326 64.0027 30.2796 64.4451 30.0772C64.8876 29.8747 65.3238 29.7671 65.7473 29.7671C67.473 29.7671 68.3327 30.7921 68.3327 32.8419C68.3327 34.0503 68.0735 34.9804 67.5615 35.6257C67.0495 36.2711 66.3099 36.5937 65.3554 36.5937C64.4198 36.5937 63.6865 36.2141 63.1429 35.4485C62.5993 34.683 62.3339 33.519 62.3339 31.9562C62.3339 30.9756 62.4729 30.1783 62.7637 29.5583C63.0481 28.9446 63.4148 28.4323 63.8636 28.0273C64.1481 27.7742 64.5147 27.5717 64.9634 27.4135C65.4122 27.2555 65.8548 27.1542 66.2783 27.1036C66.6197 27.0657 66.8472 27.0276 66.9736 26.9833C67.0937 26.9454 67.1758 26.8632 67.2202 26.7366L67.3845 26.2241H68.0482L67.8585 27.2808C67.8144 27.5022 67.7448 27.673 67.6563 27.7805Z" fill="#1D1D1E"/>
<path d="M71.1712 39.4215C71.0385 39.4089 70.95 39.3836 70.8932 39.3518V38.3206C70.9373 38.3522 71.0322 38.3775 71.1712 38.3903C71.3103 38.4029 71.4431 38.4156 71.5695 38.4156C71.9488 38.4156 72.2838 38.2827 72.5683 38.017C72.859 37.7512 73.1372 37.2451 73.4026 36.4922H72.8337L70.5834 30.621L70.0398 30.4691V29.9124H72.8969V30.4691L71.9867 30.6084L73.1498 34.1071L73.6934 35.8406L74.2054 34.0944L75.2611 30.6084L74.4647 30.4691V29.9124H76.8478V30.4691L76.2536 30.6084C75.0905 34.164 74.4078 36.1885 74.2054 36.6694C73.9336 37.3463 73.6934 37.8841 73.4722 38.2637C73.251 38.6496 72.9918 38.9406 72.6884 39.1431C72.3849 39.3455 72.0182 39.4468 71.5758 39.4468C71.4368 39.4468 71.304 39.4342 71.1712 39.4215Z" fill="#1D1D1E"/>
<path d="M80.6974 34.1197C80.5204 34.9611 80.3245 35.5305 80.1032 35.8406H82.9477V30.6083H80.9566V31.3549C80.9566 32.3608 80.8681 33.2783 80.6974 34.1197ZM85.0907 37.0743C85.0338 37.7385 84.9769 38.2827 84.9263 38.7002H84.1804C84.1614 38.4092 84.1298 37.979 84.0792 37.4096C84.0286 36.8402 83.9908 36.5365 83.9655 36.4985H79.4837C79.4521 36.5681 79.3636 36.9984 79.2245 37.7892L79.0349 38.7002H78.2384C78.2701 37.5805 78.308 36.6188 78.3459 35.8279H79.0223C79.4015 35.6761 79.6987 35.1636 79.9262 34.2779C80.1475 33.3984 80.2549 32.19 80.2549 30.6526L79.1551 30.4881V29.906H85.2361V30.4881L84.1804 30.6526V35.8343H85.2235L85.0907 37.0743Z" fill="#1D1D1E"/>
<path d="M88.0359 39.4215C87.9031 39.4089 87.8147 39.3836 87.7578 39.3518V38.3206C87.8021 38.3522 87.8969 38.3775 88.0359 38.3903C88.175 38.4029 88.3077 38.4156 88.4342 38.4156C88.8134 38.4156 89.1484 38.2827 89.4329 38.017C89.7236 37.7512 90.0018 37.2451 90.2673 36.4922H89.6983L87.448 30.621L86.9044 30.4691V29.9124H89.7617V30.4691L88.8513 30.6084L90.0144 34.1071L90.5581 35.8406L91.0701 34.0944L92.1258 30.6084L91.3293 30.4691V29.9124H93.7124V30.4691L93.1182 30.6084C91.9551 34.164 91.2724 36.1885 91.0701 36.6694C90.7983 37.3463 90.5581 37.8841 90.3369 38.2637C90.1156 38.6496 89.8564 38.9406 89.553 39.1431C89.2496 39.3455 88.883 39.4468 88.4405 39.4468C88.2951 39.4468 88.1623 39.4342 88.0359 39.4215Z" fill="#1D1D1E"/>
<path d="M106.431 36.5998C106.336 37.6057 106.26 38.3079 106.203 38.7128H105.47C105.47 38.637 105.457 38.4977 105.432 38.3079C105.344 37.1438 105.293 36.5428 105.268 36.4922H95.4762V35.9354L96.4812 35.8027V30.6526L95.4952 30.4881V29.906H98.6811V30.4881L97.6949 30.6526V35.8343H100.28V30.6526L99.2879 30.4881V29.906H102.43V30.4881L101.494 30.6526V35.8343H104.092V30.6526L103.1 30.4881V29.906H106.254V30.4881L105.306 30.6526V35.8153H106.513L106.431 36.5998Z" fill="#1D1D1E"/>
<path d="M112.74 32.5635C112.765 32.3989 112.778 32.2281 112.778 32.0509C112.771 31.5386 112.664 31.1336 112.449 30.8362C112.24 30.5389 111.912 30.3934 111.457 30.3934C110.995 30.3934 110.635 30.5579 110.363 30.8931C110.091 31.2222 109.933 31.7853 109.895 32.5635H112.74ZM109.345 35.6826C108.846 35.0562 108.593 34.221 108.593 33.1771C108.593 32.4875 108.726 31.8864 108.985 31.3614C109.244 30.8426 109.611 30.4376 110.078 30.153C110.546 29.8682 111.083 29.729 111.684 29.729C112.417 29.729 112.993 29.9315 113.397 30.3428C113.802 30.7477 114.017 31.3361 114.042 32.0952C114.042 32.5761 114.017 32.9431 113.96 33.1961H109.882C109.895 33.9806 110.078 34.6069 110.426 35.0878C110.774 35.5686 111.267 35.8027 111.905 35.8027C112.221 35.8027 112.55 35.7458 112.898 35.6318C113.239 35.518 113.511 35.3788 113.701 35.2206L113.928 35.7395C113.701 35.9798 113.359 36.1823 112.91 36.3595C112.462 36.5303 112 36.6189 111.532 36.6189C110.571 36.6189 109.845 36.3089 109.345 35.6826Z" fill="#1D1D1E"/>
<path d="M120.527 32.5635C120.552 32.3989 120.565 32.2281 120.565 32.0509C120.559 31.5386 120.451 31.1336 120.236 30.8362C120.028 30.5389 119.699 30.3934 119.244 30.3934C118.789 30.3934 118.422 30.5579 118.15 30.8931C117.878 31.2222 117.721 31.7853 117.683 32.5635H120.527ZM117.126 35.6826C116.627 35.0562 116.374 34.221 116.374 33.1771C116.374 32.4875 116.507 31.8864 116.766 31.3614C117.025 30.8426 117.392 30.4376 117.86 30.153C118.327 29.8682 118.865 29.729 119.465 29.729C120.198 29.729 120.767 29.9315 121.178 30.3428C121.583 30.7477 121.798 31.3361 121.823 32.0952C121.823 32.5761 121.798 32.9431 121.741 33.1961H117.664C117.676 33.9806 117.86 34.6069 118.207 35.0878C118.555 35.5686 119.048 35.8027 119.686 35.8027C120.002 35.8027 120.331 35.7458 120.673 35.6318C121.014 35.518 121.286 35.3788 121.475 35.2206L121.703 35.7395C121.475 35.9798 121.134 36.1823 120.685 36.3595C120.236 36.5303 119.775 36.6189 119.313 36.6189C118.359 36.6189 117.632 36.3089 117.126 35.6826Z" fill="#1D1D1E"/>
</g>
</g>
<defs>
<clipPath id="clip0_5226_14421">
<rect width="122" height="40" fill="white"/>
</clipPath>
</defs>
</svg>
