<svg width="128" height="27" viewBox="0 0 128 27" fill="none" xmlns="http://www.w3.org/2000/svg">
<g clip-path="url(#clip0_4584_10260)">
<path d="M24.1724 11.575C24.1724 11.575 24.7723 4.07287 24.8333 3.33835C24.9249 2.15528 24.0657 0.0078125 21.9864 0.0078125C21.3509 0.0078125 15.8501 0.0078125 15.8501 0.0078125V0.0134196H12.1591H11.5745C11.5745 0.0134196 5.92626 0.0134196 4.81797 0.0134196C2.73865 0.0134196 1.72695 1.57216 1.59985 3.058C1.52359 3.9383 0.105178 22.0769 0.0136677 23.1198C-0.133766 24.8018 0.918604 26.7026 2.83016 26.7026C3.71984 26.7026 10.0442 26.7026 10.0442 26.7026H13.0539C13.0539 26.7026 18.7072 26.7026 19.9019 26.7026C22.1694 26.7026 23.0489 25.3794 23.2421 23.3384C23.3488 22.1161 23.9081 14.7317 23.9081 14.7317H13.5877L13.1403 20.4396H10.5272L11.6558 6.2708H14.2639L13.8521 11.575H24.1724Z" fill="#018C95"/>
<path d="M39.8845 2.29325C39.5185 3.4595 36.5139 13.8268 36.5139 13.8268L37.8509 0H27.5357L25.375 26.6892C25.375 26.6892 30.8199 26.6892 33.1483 26.6892C35.1005 26.6892 35.7665 25.4669 36.0919 24.4913C36.4783 23.3194 39.3405 14.6006 39.3405 14.6006L38.2881 26.6892H48.6085L50.7336 0C50.7336 0 43.3365 0 42.6349 0C40.8504 0 40.1489 1.46342 39.8845 2.29325Z" fill="#018C95"/>
<path d="M92.2702 0L91.3043 12.1727H88.6861L89.652 0H79.3317C79.3317 0 78.3403 12.8848 78.2386 14.1296C78.1115 15.6154 78.8741 17.7236 81.1619 17.7236C82.2397 17.7236 90.862 17.7236 90.862 17.7236L90.6485 20.4318H77.7404L77.2422 26.6892H90.557H91.1416C91.1416 26.6892 96.5458 26.6892 97.7761 26.6892C99.164 26.6892 100.511 25.6855 100.694 23.5493C100.811 22.1756 102.585 0 102.585 0H92.2702Z" fill="#018C95"/>
<path d="M119.032 0.0078125H115.336H105.016L102.906 26.697H113.227L113.882 18.4379H117.578H116.892C123.389 18.4379 122.967 18.4379 123.908 18.4379C125.682 18.4379 126.857 17.4399 127.05 15.1522C127.126 14.2663 127.939 4.15136 127.995 3.25425C128.117 1.28059 126.694 0.0078125 124.93 0.0078125C124.213 0.0078125 119.032 0.0078125 119.032 0.0078125ZM114.32 12.887L114.843 6.26519H117.426L116.902 12.887H114.32Z" fill="#018C95"/>
<path d="M63.0309 8.96555L63.2444 6.25738H76.1678L76.666 0H63.7427H63.158H53.4274L51.3125 26.6892H55.1864C55.1864 26.6892 70.6568 26.6892 71.9024 26.6892C73.2089 26.6892 74.6273 25.8313 74.8154 23.5997C74.9527 21.9233 75.5882 13.9894 75.7051 12.5484C75.8576 10.6252 74.7493 8.95994 72.5785 8.95994C71.5058 8.96555 63.0309 8.96555 63.0309 8.96555ZM64.6984 21.1383H62.065L62.5886 14.5165H65.2221L64.6984 21.1383Z" fill="#018C95"/>
</g>
<defs>
<clipPath id="clip0_4584_10260">
<rect width="128" height="27" fill="white"/>
</clipPath>
</defs>
</svg>
