<svg width="180" height="32" viewBox="0 0 180 32" fill="none" xmlns="http://www.w3.org/2000/svg">
<g clip-path="url(#clip0_4584_10213)">
<mask id="mask0_4584_10213" style="mask-type:luminance" maskUnits="userSpaceOnUse" x="0" y="0" width="180" height="32">
<path d="M180 0H0V31.3043H180V0Z" fill="white"/>
</mask>
<g mask="url(#mask0_4584_10213)">
<path d="M170.203 31.3043H5.46875C2.0131 31.3043 -0.567702 28.1523 0.132176 24.8276L4.50642 4.27466C4.98758 1.77032 7.21845 0 9.79924 0H174.533C177.989 0 180.569 3.15203 179.87 6.47676L175.496 27.0297C175.014 29.534 172.784 31.3043 170.203 31.3043Z" fill="#3D3D50"/>
<path d="M17.3659 11.8306C18.1533 11.3556 19.0281 11.0965 19.903 11.0965C20.7341 11.0965 21.4778 11.3124 22.0464 11.7442C22.615 12.1761 23.0087 12.7373 23.1399 13.4713L23.1837 13.6873L25.1521 12.9964L25.1084 12.8237C24.8459 11.7011 24.2335 10.7943 23.3149 10.1035C22.3963 9.41258 21.259 9.06714 19.9467 9.06714C18.6345 9.06714 17.4097 9.41258 16.2286 10.0603C15.0914 10.708 14.1727 11.6147 13.4728 12.7373C12.773 13.86 12.4668 15.069 12.4668 16.3643C12.4668 17.3574 12.6855 18.2642 13.1667 19.0414C13.6478 19.8186 14.304 20.4231 15.0914 20.8549C15.9224 21.2866 16.841 21.5026 17.8908 21.5026C19.2031 21.5026 20.4279 21.1571 21.5652 20.5094C22.7025 19.8617 23.6211 18.955 24.2772 17.7892L24.4085 17.5733L22.44 16.8824L22.3526 17.012C21.8277 17.7892 21.2153 18.3937 20.4279 18.8255C19.6406 19.2573 18.8094 19.4732 17.9346 19.4732C17.2784 19.4732 16.7098 19.3437 16.1849 19.0845C15.7037 18.8255 15.31 18.4369 15.0476 17.962C14.7851 17.487 14.6539 16.9256 14.6539 16.3211C14.6539 15.4144 14.8726 14.594 15.3538 13.7736C15.9224 12.9964 16.5785 12.3487 17.3659 11.8306Z" fill="white"/>
<path d="M36.7864 9.75779C35.9553 9.32603 35.0367 9.11011 33.9869 9.11011C32.6746 9.11011 31.4498 9.45555 30.2688 10.1032C29.1315 10.7509 28.2129 11.6577 27.513 12.7803C26.8131 13.903 26.507 15.1119 26.507 16.4073C26.507 17.4004 26.7257 18.3071 27.2068 19.0844C27.688 19.8616 28.3441 20.4661 29.1753 20.8978C30.0063 21.3296 30.9249 21.5455 31.9747 21.5455C33.287 21.5455 34.5118 21.2001 35.6491 20.5524C36.7864 19.9047 37.705 18.998 38.3611 17.8753C39.061 16.7527 39.3673 15.5437 39.3673 14.2483C39.3673 13.2553 39.1485 12.3485 38.6674 11.5713C38.2299 10.794 37.5737 10.1896 36.7864 9.75779ZM32.0185 19.5161C31.3623 19.5161 30.7937 19.3866 30.2688 19.1275C29.7877 18.8685 29.3939 18.4798 29.0878 18.0048C28.8253 17.5299 28.694 16.9686 28.694 16.3641C28.694 15.4574 28.9128 14.637 29.3939 13.8166C29.8751 12.9962 30.5313 12.3485 31.3186 11.8736C32.106 11.3986 32.9809 11.1395 33.8557 11.1395C34.5118 11.1395 35.0804 11.269 35.6054 11.5281C36.0866 11.7872 36.4802 12.1758 36.7864 12.6508C37.0489 13.1258 37.1801 13.687 37.1801 14.2915C37.1801 15.1983 36.9614 16.0187 36.4802 16.8391C35.9991 17.6595 35.3429 18.3071 34.5555 18.7821C33.8119 19.3002 32.9371 19.5161 32.0185 19.5161Z" fill="white"/>
<path d="M52.3591 9.36914H42.867V13.7301C42.867 14.8528 42.8233 15.8027 42.7358 16.5367C42.6483 17.2276 42.4734 17.8321 42.2546 18.3502C42.0797 18.6956 41.861 19.0411 41.5985 19.3865H40.1987V24.6111H42.2546V21.3295H51.9217V24.6111H53.9776V19.3433H52.3591V9.36914ZM50.2157 11.3121V19.3433H43.9168C44.2668 18.8252 44.4855 18.2207 44.6167 17.573C44.7917 16.6663 44.9229 15.3709 44.9229 13.6869V11.269H50.2157V11.3121Z" fill="white"/>
<path d="M66.1384 9.93052C65.2636 9.36923 64.2575 9.11011 63.2076 9.11011C62.1579 9.11011 61.1956 9.36923 60.3644 9.93052C59.577 10.4487 58.9209 11.1395 58.4835 12.0031V9.32603H56.3401V25.8633H58.4835V18.6525C58.9646 19.5161 59.577 20.207 60.3644 20.7251C61.1956 21.2864 62.1579 21.5455 63.2076 21.5455C64.3013 21.5455 65.2636 21.2864 66.1384 20.7251C67.0132 20.1638 67.7131 19.4297 68.1943 18.4798C68.6755 17.5299 68.9379 16.4936 68.9379 15.3279C68.9379 14.162 68.6755 13.1258 68.1943 12.1758C67.7131 11.2259 67.0132 10.4918 66.1384 9.93052ZM60.4957 11.6577C61.1518 11.3122 61.8954 11.0964 62.6827 11.0964C63.4264 11.0964 64.1263 11.269 64.7387 11.6577C65.351 12.0031 65.8322 12.5212 66.1822 13.1689C66.5321 13.8166 66.7071 14.5074 66.7071 15.3279C66.7071 16.1051 66.5321 16.8391 66.1822 17.4868C65.8322 18.1344 65.351 18.6525 64.7387 18.998C64.1263 19.3434 63.4264 19.5593 62.6827 19.5593C61.8954 19.5593 61.1518 19.3866 60.4957 18.998C59.8395 18.6525 59.3146 18.1344 58.9646 17.4868C58.6147 16.8391 58.396 16.1051 58.396 15.3279C58.396 14.5506 58.571 13.8166 58.9646 13.1689C59.3584 12.5212 59.8833 12.0462 60.4957 11.6577Z" fill="white"/>
<path d="M75.7184 19.991L71.869 9.36914H69.507L73.8374 20.8114H75.4559L73.5312 25.8632H75.7184L81.9297 9.36914H79.7423L75.7184 19.991Z" fill="white"/>
<path d="M100.256 9.36914H97.8507L94.57 14.3346H92.7332V9.36914H90.5896V14.3346H88.7959L85.516 9.36914H83.1095L86.8715 15.2414L82.7158 21.2864H85.2092L88.7959 16.3208H90.5896V21.2864H92.7332V16.3208H94.57L98.0698 21.2864H100.607L96.4514 15.1982L100.256 9.36914Z" fill="white"/>
<path d="M110.8 10.0168C109.838 9.41235 108.701 9.11011 107.52 9.11011C106.382 9.11011 105.288 9.36923 104.37 9.93052C103.408 10.4918 102.664 11.2259 102.139 12.1758C101.571 13.1258 101.308 14.162 101.308 15.3279C101.308 16.4936 101.571 17.5299 102.139 18.4798C102.708 19.4297 103.452 20.1638 104.414 20.7251C105.376 21.2864 106.47 21.5455 107.651 21.5455C108.963 21.5455 110.101 21.2433 111.106 20.5956C112.113 19.9479 112.856 19.1275 113.381 18.048L113.468 17.8753L111.631 17.0981L111.544 17.2708C111.194 18.0048 110.669 18.5662 110.013 18.998C109.357 19.4297 108.569 19.6457 107.695 19.6457C106.908 19.6457 106.163 19.4729 105.507 19.0844C104.852 18.6957 104.37 18.1776 103.977 17.5299C103.714 17.0981 103.539 16.6232 103.495 16.1051H113.731V15.9323C113.819 14.6802 113.6 13.5143 113.074 12.5212C112.55 11.3986 111.763 10.5782 110.8 10.0168ZM103.933 13.1689C104.283 12.5212 104.808 12.0031 105.42 11.6145C106.033 11.2259 106.732 11.0532 107.52 11.0532C108.263 11.0532 108.963 11.2259 109.575 11.5713C110.188 11.9167 110.669 12.3917 111.019 12.9962C111.238 13.3848 111.413 13.7734 111.5 14.2483H103.495C103.627 13.8598 103.758 13.4711 103.933 13.1689Z" fill="white"/>
<path d="M119.942 11.7009C120.554 11.3122 121.297 11.1395 122.042 11.1395C122.873 11.1395 123.66 11.3554 124.316 11.7872C124.972 12.2189 125.497 12.8235 125.847 13.5575L125.934 13.7302L127.903 13.0394L127.816 12.8235C127.334 11.7009 126.547 10.7509 125.541 10.1032C124.535 9.45555 123.353 9.11011 122.042 9.11011C120.861 9.11011 119.767 9.36923 118.805 9.93052C117.842 10.4918 117.055 11.2259 116.486 12.1758C115.918 13.1258 115.655 14.162 115.655 15.3279C115.655 16.4936 115.918 17.5299 116.486 18.4798C117.055 19.4297 117.798 20.1638 118.761 20.7251C119.723 21.2864 120.817 21.5455 121.998 21.5455C123.31 21.5455 124.491 21.2001 125.497 20.5524C126.503 19.9047 127.291 18.9548 127.772 17.8322L127.859 17.6163L125.891 16.9254L125.803 17.0981C125.453 17.8322 124.972 18.4367 124.272 18.8685C123.616 19.3002 122.829 19.5161 121.998 19.5161C121.211 19.5161 120.51 19.3434 119.898 18.9548C119.285 18.5662 118.761 18.0912 118.411 17.4436C118.061 16.7959 117.842 16.1051 117.842 15.3279C117.842 14.5506 118.017 13.8166 118.411 13.2121C118.848 12.5644 119.329 12.0462 119.942 11.7009Z" fill="white"/>
<path d="M129.172 11.3121H133.37V21.2864H135.514V11.3121H139.713V9.36914H129.172V11.3121Z" fill="white"/>
<path d="M150.911 15.8459C150.561 15.5868 150.08 15.3709 149.598 15.2414C150.211 14.9823 150.692 14.6369 150.998 14.2051C151.348 13.7301 151.524 13.1689 151.524 12.5643C151.524 11.9598 151.348 11.3985 150.998 10.8804C150.649 10.4054 150.167 10.0168 149.555 9.75771C148.943 9.49866 148.287 9.36914 147.543 9.36914H141.725V21.3295H148.155C148.899 21.3295 149.555 21.2 150.167 20.941C150.78 20.6819 151.218 20.2933 151.567 19.8183C151.917 19.3433 152.092 18.782 152.092 18.1344C152.049 17.1412 151.654 16.364 150.911 15.8459ZM148.899 13.9461C148.549 14.2483 148.068 14.421 147.499 14.421H143.781V11.2258H147.499C148.068 11.2258 148.505 11.3985 148.899 11.6576C149.249 11.9598 149.424 12.3053 149.424 12.7802C149.424 13.2552 149.249 13.6437 148.899 13.9461ZM143.781 16.2777H148.068C148.637 16.2777 149.074 16.4504 149.424 16.7527C149.774 17.0549 149.949 17.4435 149.949 17.8752C149.949 18.3502 149.774 18.6956 149.424 18.9979C149.074 19.3001 148.637 19.4297 148.068 19.4297H143.781V16.2777Z" fill="white"/>
<path d="M165.829 12.1758C165.26 11.2259 164.516 10.4918 163.51 9.93052C162.548 9.36923 161.454 9.11011 160.273 9.11011C159.092 9.11011 157.999 9.36923 157.036 9.93052C156.073 10.4918 155.286 11.2259 154.718 12.1758C154.149 13.1258 153.887 14.162 153.887 15.3279C153.887 16.4936 154.149 17.5299 154.718 18.4798C155.286 19.4297 156.03 20.1638 156.992 20.7251C157.955 21.2864 159.048 21.5455 160.229 21.5455C161.41 21.5455 162.504 21.2864 163.466 20.7251C164.428 20.1638 165.216 19.4297 165.741 18.4798C166.309 17.5299 166.572 16.4936 166.572 15.3279C166.66 14.2052 166.397 13.1258 165.829 12.1758ZM160.317 19.5161C159.529 19.5161 158.83 19.3434 158.217 18.9548C157.605 18.5662 157.08 18.0912 156.73 17.4436C156.38 16.7959 156.161 16.1051 156.161 15.3279C156.161 14.5506 156.336 13.8166 156.73 13.2121C157.08 12.5644 157.605 12.0462 158.217 11.7009C158.83 11.3122 159.573 11.1395 160.317 11.1395C161.06 11.1395 161.804 11.3122 162.46 11.7009C163.116 12.0894 163.597 12.5644 163.947 13.2121C164.297 13.8598 164.472 14.5506 164.472 15.371C164.472 16.1482 164.297 16.8823 163.947 17.5299C163.597 18.1776 163.072 18.6525 162.46 19.0412C161.804 19.3434 161.06 19.5161 160.317 19.5161Z" fill="white"/>
</g>
</g>
<defs>
<clipPath id="clip0_4584_10213">
<rect width="180" height="31.3043" fill="white"/>
</clipPath>
</defs>
</svg>
