<svg width="146" height="24" viewBox="0 0 146 24" fill="none" xmlns="http://www.w3.org/2000/svg">
<path d="M12.3539 21.9708C10.4858 22.1691 8.60879 22.2695 6.73047 22.2718C5.38986 22.2718 4.31465 21.8607 3.50485 21.0384C2.69504 20.2161 2.29102 19.1232 2.29277 17.7596V10.0889H0.516113V6.02746H2.29277L2.88368 2.41553H7.4714V6.02746H11.1695V10.0889H7.4714V17.0077C7.46778 17.147 7.49209 17.2855 7.54286 17.4149C7.59363 17.5443 7.66979 17.6619 7.76669 17.7604C7.8636 17.8589 7.97924 17.9363 8.10653 17.9879C8.23383 18.0395 8.37013 18.0642 8.50713 18.0605H12.3539V21.9708Z" fill="#745FCA"/>
<path d="M23.5689 10.1146C22.3252 10.1146 20.8381 10.441 19.7221 11.2919V21.9711H14.5435V6.0278H19.1299L19.426 7.98359C21.1228 6.47996 22.8981 5.7277 24.752 5.72681H26.0838V10.1146H23.5689Z" fill="#745FCA"/>
<path d="M28.7771 5.72665C36.5417 5.32532 39.7266 5.86043 40.2266 6.02631C40.8049 6.20902 41.3316 6.53016 41.7625 6.96274C42.5705 7.78501 42.9745 8.87795 42.9745 10.2416V21.9737H38.3881L38.092 20.47C37.2127 21.0687 36.2501 21.53 35.2362 21.8385C34.2597 22.1284 33.4363 22.2738 32.766 22.2747H31.7303C30.3879 22.2747 29.3127 21.8635 28.5046 21.0412C27.6966 20.219 27.2921 19.126 27.2913 17.7624V16.4059C27.2913 15.0423 27.6957 13.9494 28.5046 13.1271C29.3136 12.3048 30.3888 11.8937 31.7303 11.8937H37.7959V10.6897C37.7997 10.5504 37.7755 10.4118 37.7248 10.2823C37.6741 10.1528 37.598 10.0352 37.501 9.93664C37.4041 9.83809 37.2884 9.76068 37.161 9.70915C37.0336 9.65761 36.8972 9.63303 36.7602 9.6369C35.4784 9.6369 34.0632 9.69665 32.5146 9.81616C30.9661 9.93567 29.718 10.0248 28.7705 10.0837L28.7771 5.72665ZM34.2518 18.0607C35.2985 18.0607 36.4829 17.8601 37.8051 17.4587V15.6541H33.5148C33.3779 15.6508 33.2418 15.6758 33.1147 15.7275C32.9875 15.7793 32.8721 15.8567 32.7752 15.9551C32.6784 16.0536 32.6022 16.1709 32.5513 16.3002C32.5004 16.4294 32.4759 16.5678 32.4791 16.7069V17.0079C32.4759 17.1471 32.5004 17.2855 32.5513 17.4147C32.6022 17.5439 32.6784 17.6613 32.7752 17.7597C32.8721 17.8581 32.9875 17.9356 33.1147 17.9873C33.2418 18.039 33.3779 18.064 33.5148 18.0607H34.2518Z" fill="#745FCA"/>
<path d="M59.5524 21.6702C55.8675 22.0715 52.6125 22.2722 49.7874 22.2722C48.4459 22.2722 47.3707 21.861 46.5618 21.0388C45.7529 20.2165 45.3484 19.1235 45.3484 17.7599V10.8411C45.3484 9.33743 45.7678 8.15932 46.6065 7.30672C47.4453 6.45413 48.6043 6.02783 50.0835 6.02783H59.559V10.0893H51.718C50.9284 10.0893 50.5336 10.4906 50.5336 11.2932V17.1593C50.5304 17.2984 50.5549 17.4368 50.6058 17.566C50.6567 17.6953 50.7329 17.8126 50.8297 17.9111C50.9266 18.0095 51.042 18.0869 51.1692 18.1387C51.2963 18.1904 51.4324 18.2154 51.5693 18.2121C53.3451 18.2121 56.0083 18.0618 59.559 17.7613L59.5524 21.6702Z" fill="#745FCA"/>
<path d="M72.8687 21.9708C71.001 22.169 69.1245 22.2695 67.2466 22.2718C65.9042 22.2718 64.829 21.8607 64.021 21.0384C63.2129 20.2161 62.8084 19.1232 62.8076 17.7596V10.0889H61.0322V6.02746H62.8076L63.3985 2.41553H67.9862V6.02746H71.6856V10.0889H67.9862V17.0077C67.9829 17.1469 68.0075 17.2853 68.0584 17.4145C68.1093 17.5437 68.1855 17.6611 68.2823 17.7595C68.3792 17.858 68.4946 17.9354 68.6218 17.9871C68.7489 18.0389 68.885 18.0638 69.0219 18.0605H72.8687V21.9708Z" fill="#745FCA"/>
<path d="M81.451 6.02741V21.9707H76.2724V10.0286H74.0522V6.02741H81.451ZM76.2724 0.613525H81.451V4.82477H76.2724V0.613525Z" fill="#745FCA"/>
<path d="M89.589 15.6544V21.9713H84.4104V0.915039H89.589V11.593H91.9579L95.2138 6.02793H100.687L96.2495 13.6986L100.687 21.9713H95.2138L91.8105 15.6544H89.589Z" fill="#745FCA"/>
<path d="M109.416 17.9098C110.46 17.9098 111.645 17.7095 112.969 17.3091V6.02783H118.147V21.9712H113.561L113.265 20.4675C112.386 21.066 111.423 21.5272 110.409 21.8361C109.433 22.1259 108.609 22.2713 107.938 22.2722H106.601C105.259 22.2722 104.184 21.861 103.375 21.0388C102.566 20.2165 102.162 19.1235 102.163 17.7599V6.02783H107.341V16.8636C107.338 17.0028 107.363 17.1412 107.414 17.2704C107.465 17.3996 107.541 17.517 107.638 17.6154C107.734 17.7138 107.85 17.7913 107.977 17.843C108.104 17.8948 108.24 17.9197 108.377 17.9164L109.416 17.9098Z" fill="#745FCA"/>
<path d="M131.606 5.72681C133.206 5.72681 134.439 6.3288 135.306 7.53277C136.206 6.91398 137.201 6.45151 138.25 6.16425C139.169 5.89307 140.119 5.74599 141.077 5.72681H141.373C142.714 5.72681 143.789 6.13794 144.598 6.96021C145.407 7.78249 145.812 8.87543 145.812 10.239V21.9711H140.632V11.142C140.635 11.0028 140.611 10.8642 140.56 10.7348C140.51 10.6054 140.433 10.4879 140.336 10.3894C140.24 10.2909 140.124 10.2135 139.997 10.1619C139.869 10.1103 139.733 10.0855 139.596 10.0892H139.449C138.561 10.0892 137.426 10.2899 136.045 10.6912V21.9711H130.867V11.142C130.87 11.0029 130.845 10.8645 130.794 10.7353C130.744 10.606 130.667 10.4887 130.571 10.3902C130.474 10.2918 130.358 10.2144 130.231 10.1626C130.104 10.1109 129.968 10.0859 129.831 10.0892H129.684C128.796 10.0892 127.661 10.2899 126.28 10.6912V21.9711H121.102V6.0278H125.688L125.984 7.53277C126.863 6.93358 127.826 6.47225 128.84 6.16425C129.817 5.87262 130.64 5.72681 131.31 5.72681H131.606Z" fill="#745FCA"/>
</svg>
